<?xml version="1.0" encoding="UTF-8" standalone="no"?>
<svg
   version="1.1"
   id="svg10"
   xml:space="preserve"
   width="180.6543"
   height="57.65884"
   viewBox="0 0 180.6543 57.65884"
   sodipodi:docname="logo_unisalento.svg"
   inkscape:version="1.4 (86a8ad7, 2024-10-11)"
   xmlns:inkscape="http://www.inkscape.org/namespaces/inkscape"
   xmlns:sodipodi="http://sodipodi.sourceforge.net/DTD/sodipodi-0.dtd"
   xmlns="http://www.w3.org/2000/svg"
   xmlns:svg="http://www.w3.org/2000/svg"
   xmlns:rdf="http://www.w3.org/1999/02/22-rdf-syntax-ns#"
   xmlns:cc="http://creativecommons.org/ns#"
   xmlns:dc="http://purl.org/dc/elements/1.1/"><sodipodi:namedview
     pagecolor="#ffffff"
     bordercolor="#666666"
     borderopacity="1"
     objecttolerance="10"
     gridtolerance="10"
     guidetolerance="10"
     inkscape:pageopacity="0"
     inkscape:pageshadow="2"
     inkscape:window-width="1589"
     inkscape:window-height="818"
     id="namedview637"
     showgrid="false"
     fit-margin-left="0"
     lock-margins="true"
     fit-margin-top="0"
     fit-margin-right="0"
     fit-margin-bottom="0"
     inkscape:zoom="6.4199969"
     inkscape:cx="80.140226"
     inkscape:cy="11.993775"
     inkscape:window-x="115"
     inkscape:window-y="47"
     inkscape:window-maximized="0"
     inkscape:current-layer="g18"
     inkscape:showpageshadow="2"
     inkscape:pagecheckerboard="0"
     inkscape:deskcolor="#d1d1d1" /><metadata
     id="metadata16"><rdf:RDF><cc:Work
         rdf:about=""><dc:format>image/svg+xml</dc:format><dc:type
           rdf:resource="http://purl.org/dc/dcmitype/StillImage" /><dc:title /></cc:Work></rdf:RDF></metadata><defs
     id="defs14" /><g
     id="g18"
     transform="matrix(1.3333333,0,0,-1.3333333,-8.1296931,63.221865)"><g
       id="g20"
       transform="scale(0.1)"
       style="fill:#abdee5"><path
         d="m 629.949,252.805 v 17.972 h -0.269 c -6.899,-12.664 -17.207,-19 -30.879,-19 -6.906,0 -13.121,1.594 -18.598,4.836 -5.476,3.211 -9.527,7.332 -12.144,12.305 -2.758,5.164 -4.137,13.406 -4.137,24.68 v 40.007 c 0,4.028 -0.817,7.094 -2.426,9.176 -1.609,2.086 -4.699,3.125 -9.308,3.125 v 1.875 h 44.621 v -1.875 c -4.895,0 -8.082,-1.121 -9.543,-3.336 -1.477,-2.257 -2.196,-5.242 -2.196,-8.965 v -42.371 c 0,-6.238 0.75,-11.152 2.278,-14.765 1.039,-2.621 2.57,-4.879 4.531,-6.762 1.949,-1.894 4.215,-3.34 6.832,-4.332 2.598,-0.984 5.309,-1.469 8.152,-1.469 2.981,0 5.809,0.524 8.512,1.571 2.699,1.066 5.156,2.558 7.305,4.535 2.183,1.976 3.836,4.23 4.949,6.718 1.559,3.7 2.32,9.473 2.32,17.27 v 39.605 c 0,4.512 -0.898,7.7 -2.703,9.594 -1.808,1.895 -4.828,2.844 -9.023,2.844 v 1.738 h 44.609 v -1.875 c -4.828,0 -8.031,-1.093 -9.512,-3.277 -1.468,-2.211 -2.218,-5.215 -2.218,-9.047 V 266.91 c 0,-4.195 0.839,-7.332 2.507,-9.328 1.684,-2.023 4.746,-3.039 9.223,-3.039 v -1.738 h -32.883"
         style="fill:#abdee5;fill-opacity:1;fill-rule:nonzero;stroke:none"
         id="path22" /><path
         d="m 700.828,347.781 57.957,-61.187 v 43.457 c 0,5.711 -1.18,9.609 -3.476,11.695 -2.329,2.098 -5.895,3.477 -10.625,4.16 v 1.875 h 32.734 v -1.875 c -3.602,-0.398 -6.285,-1.363 -8.059,-2.926 -1.773,-1.578 -2.914,-3.417 -3.429,-5.511 -0.496,-2.102 -0.774,-4.586 -0.774,-7.418 v -78.274 h -2.359 l -69.508,73.11 v -53.446 c 0,-4.488 0.926,-8.285 2.856,-11.433 1.91,-3.184 5.464,-4.942 10.609,-5.336 v -1.867 h -33.918 v 1.867 c 9.504,0.766 14.219,5.433 14.133,14.012 v 62.855 c -0.27,0.176 -0.602,0.457 -1.039,0.902 -0.375,0.372 -1.039,1.004 -1.942,1.856 -0.89,0.875 -1.703,1.641 -2.445,2.32 -5.773,5.539 -10.805,8.653 -15.168,9.289 v 1.875 h 34.453"
         style="fill:#abdee5;fill-opacity:1;fill-rule:nonzero;stroke:none"
         id="path24" /><path
         d="m 780.707,346.043 v 1.738 h 44.609 v -1.875 c -4.929,0 -8.105,-1.121 -9.57,-3.386 -1.433,-2.243 -2.172,-5.247 -2.172,-8.915 v -66.679 c 0,-2.11 0.199,-4 0.602,-5.668 0.379,-1.68 1.406,-3.203 3.047,-4.563 1.664,-1.336 4.187,-2.023 7.593,-2.023 h 0.5 v -1.867 h -44.609 v 1.867 c 4.891,0 8.082,1.129 9.535,3.355 1.469,2.243 2.207,5.215 2.207,8.899 v 66.679 c 0,4.383 -0.941,7.543 -2.879,9.504 -1.902,1.938 -4.875,2.934 -8.863,2.934 v 0"
         style="fill:#abdee5;fill-opacity:1;fill-rule:nonzero;stroke:none"
         id="path26" /><path
         d="m 923.164,347.781 v -1.875 c -3.465,-0.504 -6.492,-1.847 -9.012,-4.031 -2.507,-2.168 -5.105,-7.035 -7.761,-14.613 l -26.965,-75.485 h -2.504 l -32.383,81.567 c -1.535,4.125 -3.441,7.172 -5.703,9.156 -2.238,1.965 -5.523,3.098 -9.836,3.406 v 1.875 h 43.414 v -1.875 c -2.168,-0.129 -3.894,-0.488 -5.226,-1.066 -1.329,-0.582 -2.012,-2.035 -2.012,-4.348 0,-1.629 0.566,-3.855 1.679,-6.652 l 18.504,-46.852 14.782,41.52 c 1.234,3.308 1.875,6.277 1.875,8.961 0,1.504 -0.59,3.176 -1.754,5.031 -1.153,1.844 -3.77,2.988 -7.875,3.406 v 1.875 h 30.777"
         style="fill:#abdee5;fill-opacity:1;fill-rule:nonzero;stroke:none"
         id="path28" /><path
         d="m 995.363,347.781 0.762,-21.289 h -1.871 c -0.856,3.574 -1.793,6.516 -2.867,8.848 -1.043,2.316 -2.547,4.094 -4.485,5.305 -1.89,1.23 -4.574,1.855 -7.922,1.855 h -19.14 v -39.91 h 15.273 c 4.539,0 7.891,1.027 9.965,3.039 2.102,2 3.301,5 3.656,8.941 h 1.848 v -27.847 h -1.848 c -0.668,4.222 -2.222,7.047 -4.711,8.453 -2.507,1.433 -5.457,2.129 -8.91,2.129 H 959.84 v -27.36 c 0,-7.894 4.098,-11.859 12.254,-11.859 h 5.781 c 3.926,0 7.137,0.516 9.586,1.547 2.492,1.035 4.504,2.805 6.148,5.332 1.586,2.496 3.039,6.062 4.329,10.656 h 1.875 l -1.422,-22.816 h -71.575 v 1.867 c 5.004,0 8.219,1.129 9.657,3.383 1.476,2.265 2.211,5.234 2.211,8.871 v 66.551 c 0,3.476 -0.649,6.421 -2.008,8.824 -1.313,2.387 -4.406,3.605 -9.235,3.605 h -0.625 v 1.875 h 68.547"
         style="fill:#abdee5;fill-opacity:1;fill-rule:nonzero;stroke:none"
         id="path30" /><path
         d="m 1040.07,297.305 h -3.05 v -30.379 c 0,-3.594 0.54,-6.305 1.62,-8.086 1.07,-1.793 2.38,-2.938 3.94,-3.418 1.54,-0.504 3.61,-0.789 6.17,-0.879 v -1.738 h -44.59 v 1.867 c 4.97,0 8.18,1.129 9.58,3.355 1.43,2.243 2.12,5.215 2.12,8.899 v 66.551 c 0,4.55 -0.9,7.761 -2.77,9.632 -1.83,1.883 -4.83,2.797 -8.93,2.797 v 1.875 h 49.25 c 6.48,0 12.18,-1.015 17.06,-3.047 4.92,-2 8.65,-4.859 11.25,-8.55 2.55,-3.704 3.85,-7.926 3.85,-12.707 0,-3.872 -0.81,-7.305 -2.43,-10.313 -1.65,-2.996 -3.85,-5.492 -6.63,-7.402 -2.78,-1.942 -5.86,-3.434 -9.25,-4.473 4.43,-2.773 8.75,-7.719 12.9,-14.809 l 11.37,-19.296 c 1.91,-3.309 3.72,-5.879 5.34,-7.707 1.64,-1.832 3.06,-3.02 4.32,-3.629 1.26,-0.559 2.6,-0.953 4.06,-1.176 v -1.867 h -30.62 c -2.99,5.379 -5.25,9.668 -6.86,12.84 -5.05,9.925 -8.75,16.832 -11.07,20.699 -2.32,3.879 -4.73,6.672 -7.18,8.394 -2.48,1.707 -5.63,2.567 -9.45,2.567 z m 2.11,45.195 h -5.16 v -39.91 h 4.33 c 7.37,0 12.95,1.777 16.7,5.328 3.73,3.551 5.62,8.648 5.62,15.293 0,4.144 -0.84,7.625 -2.44,10.48 -1.61,2.872 -3.99,5.032 -7.2,6.532 -3.22,1.523 -7.16,2.277 -11.85,2.277 v 0"
         style="fill:#abdee5;fill-opacity:1;fill-rule:nonzero;stroke:none"
         id="path32" /><path
         d="m 1164.51,324.254 h -2.52 c -1.73,5.914 -4.46,10.609 -8.2,14.019 -3.73,3.407 -8.27,5.122 -13.6,5.122 -2.62,0 -5.03,-0.524 -7.18,-1.582 -2.16,-1.059 -3.89,-2.551 -5.17,-4.52 -1.25,-1.953 -1.88,-4.191 -1.88,-6.73 0,-1.442 0.23,-2.899 0.71,-4.317 0.5,-1.414 1.7,-3.168 3.59,-5.238 1.89,-2.039 4.79,-4.332 8.65,-6.817 4.34,-2.703 6.98,-4.421 7.93,-5.148 5.4,-3.414 9.83,-6.559 13.28,-9.496 3.45,-2.91 6.06,-6.07 7.86,-9.484 1.82,-3.379 2.71,-7.235 2.71,-11.536 0,-3.953 -0.76,-7.535 -2.28,-10.793 -1.53,-3.234 -3.7,-6.058 -6.52,-8.468 -2.82,-2.371 -6.16,-4.227 -10.06,-5.532 -3.89,-1.3 -8.12,-1.957 -12.67,-1.957 -4.69,0 -10.12,0.875 -16.24,2.637 -0.7,0.168 -1.57,0.367 -2.62,0.59 -1.04,0.195 -1.98,0.305 -2.82,0.305 -2.01,0 -3.46,-1.036 -4.36,-3.149 h -2.27 l 0.58,26.828 h 2.51 c 0.83,-5.078 2.58,-9.308 5.28,-12.718 2.67,-3.383 5.72,-5.856 9.11,-7.368 3.38,-1.515 6.73,-2.289 9.99,-2.289 4.77,0 8.72,1.34 11.83,4.008 3.11,2.668 4.69,5.891 4.69,9.715 0,2.59 -0.68,4.832 -1.97,6.75 -1.33,1.902 -3.28,3.805 -5.91,5.672 -2.62,1.871 -7.57,5.133 -14.82,9.777 -3.84,2.488 -7.09,4.891 -9.78,7.219 -2.69,2.312 -4.77,4.535 -6.27,6.668 -1.53,2.133 -2.58,4.258 -3.22,6.383 -0.62,2.129 -0.92,4.406 -0.92,6.8 0,4.649 1.2,9.215 3.57,13.739 2.41,4.511 5.78,8.191 10.17,11.047 4.37,2.871 9.4,4.285 15.03,4.285 2.63,0 5.13,-0.262 7.52,-0.766 0.67,-0.09 1.53,-0.258 2.61,-0.547 1.04,-0.285 1.96,-0.511 2.69,-0.691 1.91,-0.324 3.31,-0.5 4.26,-0.5 1.45,0 2.47,0.25 3.06,0.707 0.59,0.484 1.13,1.164 1.64,2.059 h 2.01 v -24.684"
         style="fill:#abdee5;fill-opacity:1;fill-rule:nonzero;stroke:none"
         id="path34" /><path
         d="m 1175.94,346.043 v 1.738 h 44.61 v -1.875 c -4.93,0 -8.12,-1.121 -9.57,-3.386 -1.42,-2.243 -2.16,-5.247 -2.16,-8.915 v -66.679 c 0,-2.11 0.19,-4 0.57,-5.668 0.41,-1.68 1.41,-3.203 3.07,-4.563 1.67,-1.336 4.17,-2.023 7.59,-2.023 h 0.5 v -1.867 h -44.61 v 1.867 c 4.88,0 8.06,1.129 9.53,3.355 1.48,2.243 2.18,5.215 2.18,8.899 v 66.679 c 0,4.383 -0.93,7.543 -2.85,9.504 -1.9,1.938 -4.88,2.934 -8.86,2.934 v 0"
         style="fill:#abdee5;fill-opacity:1;fill-rule:nonzero;stroke:none"
         id="path36" /><path
         d="m 1234.75,347.781 h 66.34 c 3.05,0 5.6,0.395 7.62,1.157 h 1.87 l 0.51,-22.286 h -1.81 c -0.95,6.508 -2.53,10.676 -4.8,12.45 -2.25,1.781 -5.02,2.679 -8.28,2.679 h -17.74 v -74.855 c 0,-2.496 0.3,-4.617 0.84,-6.356 0.55,-1.73 1.7,-3.152 3.41,-4.246 1.72,-1.101 4.25,-1.652 7.56,-1.652 v -1.867 h -44.7 v 1.867 c 4.93,0 8.15,1.129 9.61,3.355 1.47,2.243 2.2,5.215 2.2,8.899 v 74.855 h -17.74 c -3,0 -5.47,-0.937 -7.35,-2.859 -1.9,-1.902 -3.75,-5.992 -5.57,-12.27 h -1.97 l 0.51,22.286 h 1.87 c 2.02,-0.762 4.56,-1.157 7.62,-1.157 v 0"
         style="fill:#abdee5;fill-opacity:1;fill-rule:nonzero;stroke:none"
         id="path38" /><path
         d="m 1369.3,348.676 31.93,-82.133 c 1.71,-4.219 3.74,-7.109 6.07,-8.664 2.32,-1.574 5.17,-2.656 8.58,-3.207 v -1.867 h -45 v 1.867 c 6.14,0.351 9.19,2.277 9.19,5.82 0,0.547 -0.08,1.328 -0.27,2.328 -0.21,1.008 -0.44,2.094 -0.77,3.231 -0.33,1.148 -0.54,1.828 -0.62,2.094 l -7.92,20.187 h -28.38 l -6.78,-19.414 c -0.86,-2.309 -1.3,-4.418 -1.3,-6.313 0,-2.933 0.87,-4.882 2.6,-5.91 1.72,-1.011 3.76,-1.672 6.13,-2.023 v -1.867 h -28.51 v 1.867 c 2.96,0.301 5.75,1.695 8.31,4.168 2.58,2.465 5.06,7.015 7.5,13.613 l 26.92,76.223 z m -25.01,-54.043 h 23.67 l -12.24,32.019 z m 24.12,85.859 14.9,-25.597 h -3.41 l -37.56,25.089 v 0.508 h 26.07"
         style="fill:#abdee5;fill-opacity:1;fill-rule:nonzero;stroke:none"
         id="path40" /><path
         d="m 843.957,191.68 h -2.473 c -1.687,5.765 -4.316,10.343 -7.968,13.668 -3.657,3.332 -8.082,5.019 -13.274,5.019 -2.57,0 -4.902,-0.523 -7.008,-1.554 -2.136,-1.028 -3.804,-2.5 -5.043,-4.395 -1.222,-1.914 -1.855,-4.109 -1.855,-6.574 0,-1.422 0.258,-2.84 0.73,-4.207 0.485,-1.407 1.633,-3.09 3.485,-5.117 1.84,-2.004 4.664,-4.227 8.433,-6.665 4.243,-2.628 6.809,-4.308 7.743,-5.019 5.281,-3.32 9.597,-6.391 12.949,-9.25 3.375,-2.863 5.922,-5.926 7.683,-9.258 1.746,-3.297 2.637,-7.051 2.637,-11.25 0,-3.859 -0.75,-7.359 -2.25,-10.555 -1.457,-3.14 -3.601,-5.894 -6.336,-8.226 -2.758,-2.32 -6.012,-4.129 -9.824,-5.414 -3.793,-1.254 -7.914,-1.91 -12.348,-1.91 -4.593,0 -9.863,0.855 -15.863,2.578 -0.66,0.168 -1.527,0.363 -2.547,0.586 -1.027,0.187 -1.93,0.297 -2.742,0.297 -1.953,0 -3.379,-1.028 -4.254,-3.075 h -2.23 l 0.597,26.172 h 2.43 c 0.812,-4.957 2.519,-9.093 5.141,-12.406 2.625,-3.32 5.574,-5.715 8.89,-7.187 3.305,-1.497 6.559,-2.239 9.754,-2.239 4.656,0 8.5,1.309 11.551,3.906 3.015,2.59 4.558,5.75 4.558,9.489 0,2.496 -0.656,4.695 -1.937,6.566 -1.281,1.871 -3.195,3.727 -5.738,5.539 -2.571,1.824 -7.383,5 -14.461,9.528 -3.75,2.433 -6.934,4.773 -9.543,7.054 -2.629,2.258 -4.664,4.43 -6.117,6.516 -1.481,2.062 -2.524,4.129 -3.137,6.211 -0.598,2.082 -0.899,4.301 -0.899,6.625 0,4.547 1.161,9.023 3.5,13.402 2.313,4.403 5.618,7.992 9.879,10.781 4.285,2.793 9.192,4.196 14.684,4.196 2.551,0 4.984,-0.258 7.34,-0.75 0.636,-0.098 1.472,-0.258 2.539,-0.547 1.015,-0.274 1.894,-0.488 2.625,-0.652 1.847,-0.333 3.23,-0.497 4.144,-0.497 1.434,0 2.438,0.239 2.985,0.676 0.59,0.473 1.097,1.141 1.625,2.016 h 1.945 V 191.68"
         style="fill:#abdee5;fill-opacity:1;fill-rule:nonzero;stroke:none"
         id="path42" /><path
         d="m 908.531,215.512 31.125,-80.137 c 1.672,-4.105 3.653,-6.922 5.899,-8.453 2.289,-1.527 5.062,-2.582 8.379,-3.125 v -1.813 H 910.02 v 1.813 c 6,0.355 9,2.223 9,5.683 0,0.536 -0.079,1.297 -0.266,2.274 -0.203,0.98 -0.461,2.031 -0.758,3.156 -0.316,1.117 -0.516,1.77 -0.613,2.035 l -7.742,19.696 h -27.672 l -6.614,-18.946 c -0.839,-2.254 -1.265,-4.312 -1.265,-6.16 0,-2.851 0.848,-4.773 2.519,-5.75 1.688,-0.992 3.692,-1.633 5.989,-1.988 v -1.813 h -27.821 v 1.813 c 2.895,0.316 5.606,1.664 8.118,4.062 2.519,2.414 4.937,6.852 7.285,13.293 l 26.336,74.36 z m -24.453,-52.707 h 23.125 l -11.973,31.183 z"
         style="fill:#abdee5;fill-opacity:1;fill-rule:nonzero;stroke:none"
         id="path44" /><path
         d="m 1027.65,121.984 h -70.584 v 1.813 c 4.821,0 7.946,1.09 9.34,3.25 1.407,2.148 2.114,5.058 2.114,8.703 v 65.031 c 0,4.039 -0.887,7.051 -2.622,9.035 -1.73,1.997 -4.679,2.997 -8.832,2.997 v 1.82 h 43.784 v -1.82 c -4.83,0 -7.983,-1.086 -9.479,-3.258 -1.469,-2.141 -2.226,-5.086 -2.226,-8.774 v -61.949 c 0,-3.82 0.742,-6.727 2.218,-8.719 1.457,-1.996 4.336,-2.98 8.614,-2.98 h 6.423 c 4.35,0 8.45,1.113 12.31,3.324 3.87,2.242 7.31,7.383 10.31,15.488 h 1.83 l -3.2,-23.961"
         style="fill:#abdee5;fill-opacity:1;fill-rule:nonzero;stroke:none"
         id="path46" /><path
         d="m 1101.74,214.633 0.76,-20.77 h -1.83 c -0.82,3.485 -1.75,6.36 -2.8,8.641 -1.01,2.242 -2.46,3.992 -4.37,5.168 -1.86,1.207 -4.47,1.805 -7.72,1.805 h -18.68 v -38.926 h 14.91 c 4.43,0 7.67,0.984 9.72,2.965 2.04,1.945 3.21,4.855 3.55,8.711 h 1.81 v -27.164 h -1.81 c -0.63,4.125 -2.16,6.875 -4.58,8.246 -2.46,1.402 -5.34,2.082 -8.69,2.082 h -14.91 v -26.7 c 0,-7.691 3.99,-11.558 11.95,-11.558 h 5.64 c 3.82,0 6.95,0.476 9.35,1.5 2.42,1.019 4.41,2.75 5.99,5.191 1.57,2.457 2.99,5.934 4.22,10.422 h 1.83 l -1.38,-22.262 h -69.8 v 1.813 c 4.86,0 8,1.109 9.42,3.305 1.42,2.207 2.14,5.093 2.14,8.668 v 64.902 c 0,3.394 -0.65,6.266 -1.96,8.605 -1.28,2.336 -4.3,3.536 -9.01,3.536 h -0.59 v 1.82 h 66.84"
         style="fill:#abdee5;fill-opacity:1;fill-rule:nonzero;stroke:none"
         id="path48" /><path
         d="m 1143.6,214.633 56.52,-59.699 v 42.394 c 0,5.574 -1.11,9.375 -3.38,11.418 -2.28,2.035 -5.73,3.391 -10.38,4.067 v 1.82 h 31.96 v -1.82 c -3.52,-0.403 -6.14,-1.34 -7.89,-2.864 -1.7,-1.539 -2.79,-3.328 -3.33,-5.398 -0.5,-2.035 -0.75,-4.461 -0.75,-7.223 v -76.355 h -2.31 l -67.81,71.324 v -52.121 c 0,-4.391 0.91,-8.102 2.78,-11.172 1.87,-3.106 5.33,-4.809 10.35,-5.207 v -1.813 h -33.07 v 1.813 c 9.27,0.758 13.86,5.312 13.77,13.668 v 61.324 c -0.26,0.16 -0.57,0.449 -1,0.883 -0.37,0.355 -1.01,0.98 -1.89,1.816 -0.87,0.836 -1.67,1.59 -2.39,2.258 -5.61,5.395 -10.55,8.43 -14.78,9.067 v 1.82 h 33.6"
         style="fill:#abdee5;fill-opacity:1;fill-rule:nonzero;stroke:none"
         id="path50" /><path
         d="m 1231.73,214.633 h 64.69 c 2.99,0 5.48,0.39 7.45,1.125 h 1.8 l 0.52,-21.742 h -1.76 c -0.94,6.347 -2.47,10.422 -4.68,12.152 -2.19,1.738 -4.92,2.617 -8.08,2.617 h -17.32 V 135.77 c 0,-2.461 0.29,-4.524 0.83,-6.207 0.53,-1.704 1.64,-3.075 3.32,-4.149 1.67,-1.074 4.14,-1.617 7.37,-1.617 v -1.813 h -43.59 v 1.813 c 4.81,0 7.95,1.109 9.36,3.266 1.44,2.199 2.16,5.097 2.16,8.707 v 73.015 h -17.32 c -2.9,0 -5.31,-0.918 -7.18,-2.793 -1.84,-1.859 -3.63,-5.855 -5.4,-11.976 h -1.92 l 0.48,21.742 h 1.82 c 1.98,-0.735 4.45,-1.125 7.45,-1.125 v 0"
         style="fill:#abdee5;fill-opacity:1;fill-rule:nonzero;stroke:none"
         id="path52" /><path
         d="m 1310.61,168.602 c 0,6.277 1.07,12.293 3.22,18.035 2.17,5.742 5.34,10.801 9.56,15.133 4.19,4.335 9.25,7.707 15.23,10.132 5.98,2.403 12.75,3.61 20.29,3.61 7.63,0 14.45,-1.227 20.43,-3.676 5.95,-2.469 11.02,-5.863 15.21,-10.215 4.18,-4.379 7.34,-9.41 9.47,-15.144 2.13,-5.735 3.21,-11.797 3.21,-18.258 0,-6.434 -1.03,-12.465 -3.11,-18.125 -2.09,-5.66 -5.12,-10.676 -9.15,-15.039 -4.03,-4.352 -9.1,-7.797 -15.2,-10.309 -6.09,-2.512 -13.03,-3.773 -20.73,-3.773 -8.31,0 -15.54,1.414 -21.72,4.254 -6.19,2.836 -11.26,6.562 -15.18,11.218 -3.91,4.649 -6.81,9.801 -8.69,15.407 -1.88,5.613 -2.84,11.203 -2.84,16.75 z m 21.99,1.183 c 0,-6.301 0.49,-12.472 1.43,-18.586 0.95,-6.121 3.38,-11.801 7.32,-17.113 3.96,-5.293 9.87,-7.957 17.81,-7.957 11.11,0 18.24,4.484 21.38,13.43 3.12,8.964 4.69,18.082 4.69,27.382 0,7.258 -0.64,14.059 -1.91,20.399 -1.25,6.34 -3.82,11.75 -7.69,16.25 -3.88,4.504 -9.36,6.777 -16.47,6.777 -7.95,0 -13.9,-2.582 -17.83,-7.719 -3.93,-5.132 -6.35,-10.597 -7.3,-16.378 -0.94,-5.797 -1.43,-11.29 -1.43,-16.485 v 0 0"
         style="fill:#abdee5;fill-opacity:1;fill-rule:nonzero;stroke:none"
         id="path54" /><path
         d="m 556.703,204.887 v 0.945 h 31.402 c 4.411,0 8.465,-0.379 12.165,-1.137 3.726,-0.757 7.058,-1.761 9.98,-3.023 2.941,-1.254 5.469,-2.625 7.629,-4.113 2.137,-1.508 3.957,-3.032 5.418,-4.579 2.57,-2.582 4.789,-5.453 6.59,-8.609 1.808,-3.16 3.14,-6.48 4.062,-10 0.914,-3.504 1.367,-7.137 1.367,-10.859 0,-3.731 -0.433,-7.293 -1.336,-10.625 -0.89,-3.375 -2.152,-6.496 -3.816,-9.34 -1.668,-2.859 -3.648,-5.469 -5.957,-7.797 -2.309,-2.328 -4.984,-4.422 -8.055,-6.289 -2.629,-1.574 -5.629,-2.82 -9.039,-3.781 -3.383,-0.969 -8.008,-1.446 -13.793,-1.446 h -36.617 v 0.883 h 1.11 c 2.527,0 4.449,0.985 5.691,2.883 1.269,1.934 1.891,3.957 1.891,6.086 v 61.609 c 0,2.067 -0.332,3.813 -1.024,5.203 -0.676,1.407 -1.594,2.415 -2.738,3.04 -1.156,0.648 -2.418,0.949 -3.82,0.949 z m 17.106,-2.922 v -64.652 c 0,-3.172 0.519,-5.52 1.539,-7.004 1.007,-1.496 2.59,-2.454 4.718,-2.914 2.145,-0.434 5.305,-0.665 9.43,-0.665 5.918,0 10.902,0.594 14.973,1.743 4.043,1.179 7.984,3.761 11.793,7.789 2.793,2.98 5.051,6.633 6.754,10.972 1.703,4.305 2.562,9.547 2.562,15.68 0,4.832 -0.691,9.625 -2.062,14.359 -1.364,4.75 -3.442,8.969 -6.262,12.661 -3.137,4.171 -7.176,7.449 -12.106,9.812 -4.949,2.359 -10.878,3.531 -17.824,3.531 -3.566,0 -8.078,-0.425 -13.515,-1.312 v 0"
         style="fill:#abdee5;fill-opacity:1;fill-rule:nonzero;stroke:none"
         id="path56" /><path
         d="m 645.059,204.887 v 0.945 h 48.648 V 192.98 h -0.773 c 0,6.868 -4.59,10.297 -13.746,10.297 h -17.004 v -37.039 h 14.961 c 2.945,0 5.582,0.473 7.921,1.438 2.325,0.961 3.649,3.164 3.981,6.597 h 0.836 v -18.519 h -0.836 c -0.332,2.105 -0.953,3.73 -1.887,4.84 -0.93,1.144 -1.828,1.89 -2.738,2.25 -0.922,0.386 -1.707,0.558 -2.41,0.558 -1.324,0.231 -2.719,0.336 -4.153,0.336 h -15.675 v -28.976 c 0,-2.176 0.41,-4.051 1.25,-5.653 0.824,-1.589 2.754,-2.379 5.781,-2.379 h 12.152 c 2.899,0 5.305,0.426 7.196,1.27 1.863,0.848 3.367,2.051 4.445,3.555 1.097,1.511 2.012,3.355 2.746,5.484 h 0.762 l -2.809,-12.805 h -48.648 v 0.883 h 1.129 c 1.71,0 3.429,0.715 5.082,2.106 1.652,1.41 2.5,3.718 2.5,6.863 v 61.496 c 0,2.52 -0.575,4.691 -1.688,6.547 -1.121,1.824 -3.094,2.758 -5.894,2.758 h -1.129"
         style="fill:#abdee5;fill-opacity:1;fill-rule:nonzero;stroke:none"
         id="path58" /><path
         d="m 703.148,125.117 h 1.11 c 1.984,0 3.738,0.781 5.285,2.352 1.52,1.558 2.289,3.777 2.289,6.617 v 61.609 c 0,3.399 -0.848,5.766 -2.574,7.09 -1.715,1.336 -3.766,2.02 -6.11,2.102 v 0.945 h 26.086 v -0.945 c -2.281,-0.082 -4.328,-0.754 -6.086,-2.035 -1.765,-1.305 -2.679,-3.68 -2.679,-7.157 v -59.531 c 0,-3.551 0.914,-6 2.679,-7.394 1.758,-1.352 4.661,-2.04 8.704,-2.04 h 7.027 c 3.066,0 5.508,0.372 7.34,1.125 1.847,0.735 3.261,1.84 4.34,3.348 1.058,1.52 2.156,3.68 3.285,6.434 h 0.929 l -3.113,-13.403 h -48.512 v 0.883"
         style="fill:#abdee5;fill-opacity:1;fill-rule:nonzero;stroke:none"
         id="path60" /><path
         d="m 441.188,257.93 c 0,-90.496 -73.36,-163.8519 -163.852,-163.8519 -90.496,0 -163.856,73.3559 -163.856,163.8519 0,90.492 73.36,163.851 163.856,163.851 90.492,0 163.852,-73.359 163.852,-163.851 z M 277.219,418.352 c -88.598,0 -160.418,-71.829 -160.418,-160.422 0,-88.594 71.82,-160.4222 160.418,-160.4222 88.601,0 160.422,71.8282 160.422,160.4222 0,88.593 -71.821,160.422 -160.422,160.422 v 0 0"
         style="fill:#abdee5;fill-opacity:1;fill-rule:nonzero;stroke:none"
         id="path62" /><path
         d="m 493.422,257.945 c 0,-119.41 -96.809,-216.2223 -216.227,-216.2223 -119.41,0 -216.2223,96.8123 -216.2223,216.2223 0,119.407 96.8123,216.219 216.2223,216.219 119.418,0 216.227,-96.812 216.227,-216.219 z M 277.195,470.809 c -117.558,0 -212.8669,-95.313 -212.8669,-212.864 0,-117.562 95.3089,-212.8708 212.8669,-212.8708 117.571,0 212.871,95.3088 212.871,212.8708 0,117.551 -95.3,212.864 -212.871,212.864 v 0 0"
         style="fill:#abdee5;fill-opacity:1;fill-rule:nonzero;stroke:none"
         id="path64" /><path
         d="m 173.766,346.449 c 0,0 2.379,5.375 -2.106,8.653 -2.797,2.054 -15.211,6.554 -29.219,-22.383 -14.011,-28.934 -9.257,-64.129 25.063,-75.172 0,0 -41.781,30.422 -5.691,86.512 0,0 7.167,-7.465 11.953,2.39 v 0 0"
         style="fill:#abdee5;fill-opacity:1;fill-rule:nonzero;stroke:none"
         id="path66" /><path
         d="m 146.578,201.156 c 0,0 -5.164,2.844 -3.547,8.168 0.973,3.321 17.278,20.254 40.879,-1.594 9.528,-8.828 16.735,-22.671 17.582,-36.39 0.067,-1.031 3.426,-22.242 8.047,-31.617 4.113,-8.297 6.594,-3.293 6.582,-4.18 -0.035,-0.867 -6.766,-6.109 -11.633,1.793 -3.812,6.168 -5.402,22.969 -5.476,22.336 -1.989,-21.184 -15.086,-31.957 -35.692,7.195 0,0 26.551,22.067 -5.793,39.559 0,0 -1.214,-10.246 -10.949,-5.27 v 0 0"
         style="fill:#abdee5;fill-opacity:1;fill-rule:nonzero;stroke:none"
         id="path68" /><path
         d="m 135.328,264.395 c 0,0 -1.164,3.628 1.957,5.449 1.973,1.129 9.793,2.972 17.363,-16.528 13.153,-33.945 -20.261,-49.156 -24.16,-29.461 0,0 31.055,-4.773 12.403,38.153 0,0 -5.153,-4.332 -7.563,2.387 v 0 0"
         style="fill:#abdee5;fill-opacity:1;fill-rule:nonzero;stroke:none"
         id="path70" /><path
         d="m 173.461,252.199 c 0,0 -0.512,3.031 -2.582,4.219 -1.293,0.734 -6.438,1.957 -11.399,-10.871 -8.648,-22.301 20.536,-36.914 23.231,-17.813 0,0 -22.676,-11.347 -15.813,20.575 0,0 5.157,-2.727 6.563,3.89 v 0 0"
         style="fill:#abdee5;fill-opacity:1;fill-rule:nonzero;stroke:none"
         id="path72" /><path
         d="m 380.652,346.449 c 0,0 -2.386,5.375 2.09,8.653 2.809,2.054 15.219,6.554 29.231,-22.383 14.007,-28.934 9.25,-64.129 -25.059,-75.172 0,0 41.77,30.422 5.676,86.512 0,0 -7.16,-7.465 -11.938,2.39 v 0 0"
         style="fill:#abdee5;fill-opacity:1;fill-rule:nonzero;stroke:none"
         id="path74" /><path
         d="m 407.844,201.156 c 0,0 5.152,2.844 3.554,8.168 -1.003,3.321 -17.304,20.254 -40.886,-1.594 -9.532,-8.828 -16.739,-22.671 -17.586,-36.39 -0.082,-1.031 -3.449,-22.242 -8.082,-31.617 -4.086,-8.297 -6.571,-3.293 -6.555,-4.18 0.024,-0.867 6.766,-6.109 11.633,1.793 3.82,6.168 5.41,22.969 5.48,22.336 1.993,-21.184 15.086,-31.957 35.68,7.195 0,0 -26.535,22.067 5.801,39.559 0,0 1.219,-10.246 10.961,-5.27 v 0 0"
         style="fill:#abdee5;fill-opacity:1;fill-rule:nonzero;stroke:none"
         id="path76" /><path
         d="m 419.074,264.395 c 0,0 1.172,3.628 -1.949,5.449 -1.969,1.129 -9.797,2.972 -17.352,-16.528 -13.16,-33.945 20.258,-49.156 24.129,-29.461 0,0 -31.023,-4.773 -12.379,38.153 0,0 5.153,-4.332 7.551,2.387 v 0 0"
         style="fill:#abdee5;fill-opacity:1;fill-rule:nonzero;stroke:none"
         id="path78" /><path
         d="m 380.957,252.199 c 0,0 0.523,3.031 2.578,4.219 1.281,0.734 6.426,1.957 11.391,-10.871 8.644,-22.301 -20.539,-36.914 -23.231,-17.813 0,0 22.676,-11.347 15.817,20.575 0,0 -5.172,-2.727 -6.555,3.89 v 0 0"
         style="fill:#abdee5;fill-opacity:1;fill-rule:nonzero;stroke:none"
         id="path80" /><path
         d="m 279.934,188.215 h 67.968 c -1.726,-4.684 -3.918,-11.742 -4.218,-16.617 -0.051,-0.723 0.625,-9.52 -4.063,-21.051 0,0 -1.379,-3.777 -6.766,-4.988 -3.871,-0.875 -9.078,-1.75 -10.335,-5.848 -2.071,-6.856 -5.657,-26.543 -5.657,-26.543 h 19.676 c -27.734,-12.82 -54.98,-11.93 -54.98,-11.93 h -2.602 -3.301 -2.593 c 0,0 -27.262,-0.89 -54.997,11.93 h 19.692 c 0,0 -3.574,19.687 -5.66,26.543 -1.266,4.098 -6.477,4.973 -10.34,5.848 -5.387,1.211 -6.766,4.988 -6.766,4.988 -4.672,11.531 -4.019,20.328 -4.054,21.051 -0.317,4.875 -2.493,11.933 -4.223,16.617 h 62.762 5.199 z m 4.925,-75.047 h 15.473 c 0,0 1.797,18.496 -0.301,21.473 h -15.496 -17.734 -10.188 c -3.008,0 -2.582,-0.989 -2.582,-0.989 -1.386,-4.816 0.133,-20.484 0.133,-20.484 h 12.953 z m -63.871,49.359 c -1.422,-1.023 -6.207,-5.214 -0.461,-11.718 0,0 1.149,-0.868 2.075,-0.868 h 7.546 c 0,0 2.239,0.129 2.239,4.973 v 23.715 c 0,0.621 -0.754,0.566 -0.754,0.566 h -7.863 c 0,0 -1.504,-0.187 -2.086,-0.875 -1.555,-1.914 -4.661,-6.34 -0.668,-10.722 0,0 0.328,-0.555 0.328,-1.114 0,-0.554 0,-3.339 0,-3.339 z m 34.285,0.618 c 0,0 0,2.785 0,3.339 0,0.559 0.321,1.114 0.321,1.114 3.992,4.382 0.875,8.808 -0.656,10.722 -0.586,0.688 -2.102,0.875 -2.102,0.875 h -7.875 c 0,0 -0.738,0.055 -0.738,-0.566 v -23.715 c 0,-4.844 2.238,-4.973 2.238,-4.973 h 7.551 c 0.926,0 2.062,0.868 2.062,0.868 5.75,6.504 0.953,10.695 -0.453,11.718 z m 43.606,-0.618 c -1.418,-1.023 -6.203,-5.214 -0.449,-11.718 0,0 1.14,-0.868 2.062,-0.868 h 7.559 c 0,0 2.234,0.129 2.234,4.973 v 23.715 c 0,0.621 -0.75,0.566 -0.75,0.566 h -7.867 c 0,0 -1.531,-0.187 -2.086,-0.875 -1.559,-1.914 -4.672,-6.34 -0.664,-10.722 0,0 0.324,-0.555 0.324,-1.114 0,-0.554 0,-3.339 0,-3.339 z m -16.172,-12.586 h 4.809 c 0.925,0 2.043,0.868 2.043,0.868 5.773,6.504 0.976,10.695 -0.434,11.718 l -0.375,0.618 c 0,0 0,2.785 0,3.339 0,0.559 0.34,1.114 0.34,1.114 3.988,4.382 0.883,8.808 -0.668,10.722 -0.582,0.688 -2.094,0.875 -2.094,0.875 h -4.508 -8.32 -5.293 c 0,0 -1.516,-0.187 -2.082,-0.875 -1.562,-1.914 -4.66,-6.34 -0.664,-10.722 0,0 0.312,-0.555 0.312,-1.114 0,-0.554 0,-3.339 0,-3.339 l -0.351,-0.618 c -1.418,-1.023 -6.215,-5.214 -0.453,-11.718 0,0 1.133,-0.868 2.058,-0.868 h 5.805 z m 50.445,13.204 c 0,0 0,2.785 0,3.339 0,0.559 0.332,1.114 0.332,1.114 4,4.382 0.891,8.808 -0.671,10.722 -0.567,0.688 -2.083,0.875 -2.083,0.875 h -7.871 c 0,0 -0.746,0.055 -0.746,-0.566 v -23.715 c 0,-4.844 2.239,-4.973 2.239,-4.973 h 7.558 c 0.922,0 2.059,0.868 2.059,0.868 5.758,6.504 0.965,10.695 -0.449,11.718 l -0.368,0.618 v 0"
         style="fill:#abdee5;fill-opacity:1;fill-rule:nonzero;stroke:none"
         id="path82" /><path
         d="m 182.59,77.1055 -0.399,-0.8399 -10.777,5.25 0.414,0.8438 1.149,-0.5664 c 1.195,-0.5782 2.371,-0.5274 3.5,0.1601 0.546,0.3086 1.23,1.3242 2.062,3.0235 l 6.047,12.4062 c 1.5,3.0662 2.965,5.3082 4.394,6.7032 1.442,1.402 3.348,2.269 5.715,2.602 2.375,0.355 5.094,-0.227 8.149,-1.719 3.344,-1.645 5.586,-3.442 6.754,-5.4338 1.156,-2.0157 1.629,-4.1719 1.39,-6.4805 -0.172,-1.5664 -1.172,-4.1953 -2.961,-7.8828 l -5.832,-11.9571 c -0.918,-1.8828 -1.265,-3.246 -1.031,-4.0781 0.234,-0.8398 0.93,-1.5429 2.086,-2.1133 l 1.145,-0.5468 -0.399,-0.8399 -13.219,6.4492 0.411,0.8321 1.164,-0.5664 c 1.253,-0.6172 2.355,-0.6641 3.296,-0.125 0.637,0.3476 1.372,1.3984 2.204,3.0937 l 6.511,13.3555 c 0.575,1.1797 1.125,2.5859 1.653,4.2305 0.539,1.6484 0.734,3.039 0.566,4.1718 -0.152,1.1407 -0.617,2.2422 -1.43,3.3199 -0.804,1.086 -1.988,2.016 -3.55,2.774 -2,0.984 -3.993,1.414 -6.004,1.316 -2.008,-0.121 -3.629,-0.703 -4.871,-1.785 -1.243,-1.074 -2.668,-3.2342 -4.247,-6.496 l -6.046,-12.3867 c -0.93,-1.9101 -1.305,-3.2109 -1.121,-3.8906 0.269,-0.9414 0.98,-1.707 2.136,-2.2695 l 1.141,-0.5547"
         style="fill:#abdee5;fill-opacity:1;fill-rule:nonzero;stroke:none"
         id="path84" /><path
         d="m 165.406,85.1797 -7.117,5.7461 -0.121,33.0312 -12.383,-15.285 c -1.324,-1.629 -1.961,-2.805 -1.926,-3.5 0.047,-0.945 0.602,-1.848 1.661,-2.707 l 0.925,-0.746 -0.586,-0.711 -9.308,7.523 0.586,0.731 0.941,-0.77 c 1.141,-0.926 2.215,-1.234 3.238,-0.941 0.633,0.187 1.543,1.023 2.747,2.519 l 18.082,22.297 0.695,-0.558 0.156,-35.4613 13.207,16.3163 c 1.317,1.637 1.977,2.797 1.938,3.488 -0.051,0.961 -0.598,1.848 -1.641,2.692 l -0.949,0.769 0.586,0.727 9.297,-7.531 -0.582,-0.727 -0.922,0.758 c -1.149,0.914 -2.239,1.234 -3.266,0.949 -0.633,-0.184 -1.543,-1.023 -2.734,-2.512 L 163.004,92.8633 c 0.043,-1.5078 0.152,-2.5977 0.309,-3.1797 0.167,-0.6172 0.535,-1.3516 1.105,-2.2188 0.285,-0.4296 0.805,-0.9531 1.562,-1.5703 l -0.574,-0.7148"
         style="fill:#abdee5;fill-opacity:1;fill-rule:nonzero;stroke:none"
         id="path86" /><path
         d="m 147.395,145.641 0.683,0.632 9.945,-10.668 -0.675,-0.64 -0.817,0.89 c -0.965,1.028 -1.957,1.504 -2.992,1.411 -0.668,-0.067 -1.75,-0.801 -3.226,-2.203 l -16.137,-15.032 c -1.254,-1.168 -2.016,-2.031 -2.278,-2.562 -0.179,-0.403 -0.214,-0.903 -0.082,-1.496 0.207,-0.805 0.594,-1.5 1.145,-2.09 l 0.836,-0.891 -0.692,-0.637 -9.949,10.684 0.676,0.629 0.828,-0.902 c 0.942,-1.008 1.942,-1.477 2.981,-1.371 0.664,0.058 1.742,0.793 3.246,2.179 l 16.121,15.028 c 1.254,1.179 2.008,2.035 2.269,2.562 0.192,0.41 0.219,0.91 0.067,1.516 -0.196,0.793 -0.574,1.496 -1.114,2.074 l -0.835,0.887"
         style="fill:#abdee5;fill-opacity:1;fill-rule:nonzero;stroke:none"
         id="path88" /><path
         d="m 98.8008,155.805 0.7539,0.535 c 0.8753,-0.856 1.7033,-1.387 2.5193,-1.563 1.192,-0.261 2.664,-0.183 4.461,0.235 l 30.504,6.926 0.551,-0.75 -16.738,-27.274 c -0.872,-1.406 -1.364,-2.316 -1.489,-2.73 -0.191,-0.641 -0.23,-1.289 -0.136,-1.965 0.117,-0.664 0.441,-1.449 0.964,-2.348 l -0.757,-0.539 -7.965,11.383 0.758,0.539 c 1.031,-1.215 1.828,-1.895 2.414,-2.051 0.593,-0.16 1.121,-0.078 1.617,0.277 0.672,0.473 1.531,1.543 2.531,3.192 l 11.387,18.527 -20.75,-4.707 c -2.035,-0.465 -3.367,-0.922 -3.985,-1.355 -0.41,-0.278 -0.64,-0.731 -0.726,-1.391 -0.086,-0.656 0.121,-1.504 0.64,-2.551 0.043,-0.078 0.098,-0.211 0.184,-0.398 l -0.766,-0.527 -5.9722,8.535"
         style="fill:#abdee5;fill-opacity:1;fill-rule:nonzero;stroke:none"
         id="path90" /><path
         d="m 93.4531,172.02 12.3009,5.472 -3.055,6.852 c -0.785,1.777 -1.586,2.844 -2.386,3.191 -1.0474,0.492 -2.4849,0.383 -4.2974,-0.312 l -0.375,0.843 10.8394,4.832 0.375,-0.843 c -1.414,-0.895 -2.292,-1.535 -2.628,-1.946 -0.414,-0.515 -0.637,-1.156 -0.668,-1.914 -0.024,-0.761 0.254,-1.804 0.824,-3.093 l 3.058,-6.856 10.262,4.563 c 1.383,0.617 2.188,1.062 2.43,1.316 0.254,0.254 0.39,0.566 0.441,0.953 0.039,0.387 -0.136,1.004 -0.523,1.867 l -2.34,5.254 c -0.785,1.766 -1.477,2.981 -2.066,3.664 -0.606,0.684 -1.422,1.239 -2.469,1.653 -1.371,0.523 -3.235,0.843 -5.598,0.988 l -0.406,0.934 8.992,0.792 10.672,-23.988 -0.844,-0.383 -0.484,1.118 c -0.344,0.734 -0.817,1.363 -1.457,1.859 -0.465,0.379 -0.981,0.543 -1.551,0.508 -0.574,-0.047 -1.625,-0.403 -3.137,-1.074 l -20.2419,-9.008 c -1.9648,-0.883 -3.0938,-1.621 -3.3633,-2.219 -0.3672,-0.824 -0.2695,-1.891 0.3047,-3.172 l 0.4844,-1.105 -0.8399,-0.383 -10.6836,23.992 6.711,3.395 0.3984,-0.895 c -1.5039,-1.059 -2.4805,-1.922 -2.9297,-2.59 -0.4453,-0.656 -0.6523,-1.445 -0.6445,-2.351 0.043,-0.715 0.4141,-1.844 1.0937,-3.387 l 3.8008,-8.527"
         style="fill:#abdee5;fill-opacity:1;fill-rule:nonzero;stroke:none"
         id="path92" /><path
         d="m 107.461,237.199 1.891,-8.929 -13.1762,-14.625 c 0.1992,-0.813 0.3672,-1.461 0.4726,-1.981 0.0508,-0.211 0.0821,-0.43 0.1329,-0.672 0.039,-0.246 0.0859,-0.484 0.1132,-0.754 l 9.7105,2.063 c 2.09,0.449 3.336,0.949 3.754,1.519 0.59,0.762 0.743,1.778 0.489,3.02 l -0.285,1.293 0.906,0.203 3.035,-14.285 -0.902,-0.192 -0.274,1.243 c -0.297,1.414 -0.961,2.328 -2.008,2.734 -0.578,0.227 -1.82,0.152 -3.707,-0.266 l -21.57,-4.578 c -2.0938,-0.441 -3.3516,-0.941 -3.7617,-1.508 -0.5782,-0.789 -0.7344,-1.82 -0.4688,-3.078 l 0.2734,-1.25 -0.9179,-0.191 -2.5782,12.137 c -0.746,3.546 -1.0468,6.199 -0.8789,7.992 0.1602,1.785 0.7969,3.414 1.9336,4.883 1.1328,1.461 2.668,2.394 4.5821,2.812 2.0625,0.426 3.9726,0.145 5.7695,-0.875 1.7852,-1.012 3.293,-2.859 4.5234,-5.531 l 8.0625,8.922 c 1.875,2.035 3.043,3.711 3.523,5 0.489,1.265 0.633,2.847 0.446,4.695 z M 95.3438,209.914 c -0.0665,0.305 -0.1211,0.574 -0.1602,0.809 -0.0352,0.218 -0.082,0.414 -0.1055,0.547 -0.6679,3.152 -1.8633,5.375 -3.5742,6.679 -1.7148,1.293 -3.6445,1.719 -5.7773,1.262 -2.0703,-0.434 -3.6368,-1.434 -4.6524,-2.996 -1.039,-1.567 -1.3164,-3.41 -0.8828,-5.531 0.1992,-0.942 0.6367,-2.18 1.2734,-3.719 l 13.879,2.949 v 0"
         style="fill:#abdee5;fill-opacity:1;fill-rule:nonzero;stroke:none"
         id="path94" /><path
         d="m 71.918,257.871 11.7773,0.402 0.0195,-0.918 c -2.25,-0.39 -4.0273,-0.984 -5.332,-1.812 -1.3086,-0.824 -2.3476,-1.977 -3.0781,-3.445 -0.7266,-1.469 -1.0703,-2.973 -1.0234,-4.524 0.0625,-1.738 0.6406,-3.152 1.75,-4.261 1.1015,-1.106 2.3281,-1.629 3.6875,-1.586 1.0468,0.035 1.9726,0.437 2.7968,1.179 1.2227,1.082 2.8125,3.617 4.7578,7.598 1.6016,3.242 2.8399,5.457 3.7071,6.652 0.875,1.196 1.914,2.137 3.1367,2.805 1.2109,0.66 2.5039,1.035 3.8476,1.07 2.5942,0.098 4.8402,-0.824 6.7732,-2.758 1.942,-1.937 2.965,-4.476 3.078,-7.628 0.036,-0.997 -0.015,-1.922 -0.136,-2.797 -0.067,-0.516 -0.34,-1.606 -0.825,-3.246 -0.457,-1.664 -0.687,-2.704 -0.679,-3.141 0.012,-0.422 0.16,-0.754 0.418,-0.973 0.258,-0.23 0.797,-0.39 1.597,-0.496 l 0.028,-0.918 -11.6721,-0.402 -0.0274,0.922 c 2.4297,0.519 4.2345,1.16 5.4185,1.953 1.183,0.773 2.156,1.926 2.906,3.476 0.754,1.555 1.094,3.215 1.047,5.02 -0.09,2.098 -0.7,3.734 -1.86,4.906 -1.136,1.18 -2.465,1.742 -3.98,1.688 -0.8362,-0.032 -1.6799,-0.289 -2.5315,-0.774 -0.8203,-0.496 -1.5976,-1.242 -2.3086,-2.23 -0.4882,-0.668 -1.4882,-2.488 -3.0117,-5.469 -1.5039,-2.973 -2.7422,-5.098 -3.6719,-6.367 -0.914,-1.274 -1.957,-2.25 -3.1132,-2.926 -1.1485,-0.672 -2.4297,-1.031 -3.8282,-1.086 -2.4336,-0.09 -4.5742,0.789 -6.3984,2.598 -1.8437,1.812 -2.8047,4.176 -2.9023,7.066 -0.0664,1.828 0.3125,3.754 1.1328,5.805 0.3789,0.969 0.5625,1.633 0.5508,2.027 -0.0196,0.422 -0.1641,0.782 -0.4297,1.055 -0.2657,0.266 -0.8008,0.465 -1.5821,0.602 l -0.039,0.933"
         style="fill:#abdee5;fill-opacity:1;fill-rule:nonzero;stroke:none"
         id="path96" /><path
         d="m 106.973,277.992 0.925,-0.07 -1.011,-14.547 -0.93,0.059 0.09,1.195 c 0.094,1.414 -0.246,2.457 -1.024,3.16 -0.5,0.43 -1.773,0.727 -3.785,0.867 l -22.0114,1.547 c -1.7188,0.11 -2.8594,0.082 -3.418,-0.109 -0.4336,-0.125 -0.8203,-0.446 -1.1602,-0.942 -0.4414,-0.707 -0.6992,-1.464 -0.7461,-2.265 l -0.0976,-1.211 -0.9141,0.074 1.0157,14.551 0.914,-0.067 -0.0742,-1.214 c -0.1055,-1.391 0.2305,-2.422 1.0039,-3.114 0.5039,-0.453 1.7813,-0.746 3.8125,-0.894 l 21.9965,-1.539 c 1.707,-0.118 2.855,-0.09 3.425,0.09 0.422,0.14 0.813,0.464 1.145,0.972 0.453,0.692 0.695,1.434 0.758,2.231 l 0.086,1.226"
         style="fill:#abdee5;fill-opacity:1;fill-rule:nonzero;stroke:none"
         id="path98" /><path
         d="m 80.0625,313.855 7.9063,-1.312 -0.1915,-0.934 c -1.4257,0.125 -2.4492,0.082 -3.1093,-0.105 -1.0508,-0.297 -1.8946,-0.836 -2.5313,-1.578 -0.625,-0.75 -1.0898,-1.817 -1.3711,-3.184 l -1.0078,-4.703 25.4412,-5.391 c 2.051,-0.445 3.379,-0.488 3.985,-0.164 0.82,0.473 1.367,1.344 1.644,2.645 l 0.238,1.152 0.903,-0.191 -3.012,-14.18 -0.898,0.195 0.254,1.196 c 0.304,1.426 0.085,2.527 -0.633,3.304 -0.45,0.481 -1.617,0.918 -3.489,1.313 l -25.4254,5.402 -0.8554,-4.004 c -0.3321,-1.55 -0.4571,-2.675 -0.3672,-3.382 0.1406,-0.918 0.5742,-1.774 1.3359,-2.567 0.75,-0.793 1.8633,-1.406 3.3477,-1.832 l -0.1914,-0.941 -7.7657,2.015 5.793,27.246"
         style="fill:#abdee5;fill-opacity:1;fill-rule:nonzero;stroke:none"
         id="path100" /><path
         d="m 110.285,329.863 -4.961,-12.238 4.102,-4.113 c 1.015,-1.02 1.824,-1.657 2.433,-1.903 0.473,-0.199 0.996,-0.121 1.532,0.184 0.562,0.305 1.195,1.199 1.929,2.676 l 0.852,-0.356 -4.027,-9.961 -0.864,0.356 c 0.309,1.41 0.344,2.371 0.129,2.918 -0.418,1.097 -1.578,2.586 -3.472,4.461 l -21.5083,21.636 0.3164,0.762 30.7189,0.375 c 2.469,0.031 4.164,0.278 5.074,0.75 0.926,0.473 1.684,1.324 2.277,2.582 l 0.856,-0.351 -5.024,-12.45 -0.859,0.344 c 0.438,1.281 0.578,2.227 0.391,2.813 -0.168,0.574 -0.52,0.976 -1.02,1.191 -0.691,0.277 -1.898,0.391 -3.633,0.375 z m -2.004,-0.019 -14.906,-0.172 10.547,-10.617 z"
         style="fill:#abdee5;fill-opacity:1;fill-rule:nonzero;stroke:none"
         id="path102" /><path
         d="m 108.777,375.395 9.981,-6.235 -0.492,-0.773 c -2.075,0.929 -3.883,1.422 -5.434,1.476 -1.551,0.055 -3.051,-0.324 -4.469,-1.14 -1.433,-0.797 -2.562,-1.86 -3.379,-3.16 -0.929,-1.5 -1.23,-2.993 -0.941,-4.52 0.293,-1.539 1.023,-2.66 2.18,-3.379 0.867,-0.551 1.871,-0.742 2.984,-0.594 1.609,0.223 4.336,1.434 8.184,3.641 3.144,1.785 5.41,2.945 6.797,3.441 1.39,0.508 2.765,0.703 4.16,0.575 1.39,-0.125 2.648,-0.543 3.8,-1.266 2.172,-1.367 3.536,-3.395 4.063,-6.07 0.519,-2.692 -0.051,-5.368 -1.715,-8.047 -0.531,-0.832 -1.09,-1.59 -1.676,-2.239 -0.347,-0.398 -1.183,-1.144 -2.488,-2.246 -1.328,-1.105 -2.094,-1.847 -2.328,-2.211 -0.215,-0.355 -0.289,-0.707 -0.191,-1.043 0.07,-0.335 0.425,-0.769 1.035,-1.292 l -0.485,-0.782 -9.902,6.176 0.496,0.785 c 2.293,-0.926 4.168,-1.394 5.57,-1.414 1.43,-0.008 2.879,0.414 4.368,1.262 1.488,0.859 2.699,2.062 3.668,3.601 1.113,1.766 1.511,3.461 1.207,5.082 -0.293,1.618 -1.082,2.829 -2.364,3.625 -0.707,0.438 -1.547,0.711 -2.523,0.77 -0.973,0.059 -2.024,-0.121 -3.164,-0.551 -0.77,-0.277 -2.621,-1.234 -5.551,-2.851 -2.922,-1.618 -5.129,-2.696 -6.605,-3.235 -1.473,-0.523 -2.883,-0.754 -4.211,-0.668 -1.336,0.078 -2.598,0.485 -3.782,1.231 -2.082,1.301 -3.367,3.215 -3.859,5.738 -0.5,2.535 0.008,5.02 1.555,7.477 0.945,1.546 2.347,2.933 4.172,4.187 0.851,0.578 1.378,1.035 1.582,1.359 0.226,0.375 0.3,0.747 0.234,1.122 -0.07,0.367 -0.395,0.824 -0.973,1.386 l 0.496,0.782"
         style="fill:#abdee5;fill-opacity:1;fill-rule:nonzero;stroke:none"
         id="path104" /><path
         d="m 148.734,418.309 7.875,-8.739 -0.675,-0.629 c -1.739,1.481 -3.34,2.461 -4.821,2.93 -1.48,0.477 -3.015,0.516 -4.621,0.133 -1.582,-0.375 -2.965,-1.086 -4.117,-2.117 -1.289,-1.16 -2.004,-2.524 -2.141,-4.078 -0.132,-1.563 0.246,-2.832 1.161,-3.84 0.687,-0.778 1.585,-1.231 2.695,-1.383 1.613,-0.238 4.574,0.172 8.879,1.223 3.519,0.867 6.011,1.359 7.496,1.449 1.457,0.097 2.848,-0.09 4.148,-0.602 1.293,-0.5 2.395,-1.25 3.301,-2.258 1.723,-1.921 2.465,-4.242 2.231,-6.968 -0.239,-2.727 -1.532,-5.153 -3.868,-7.254 -0.734,-0.656 -1.472,-1.215 -2.222,-1.692 -0.442,-0.285 -1.457,-0.773 -3.02,-1.476 -1.57,-0.695 -2.519,-1.195 -2.844,-1.485 -0.308,-0.273 -0.461,-0.589 -0.472,-0.945 -0.012,-0.351 0.199,-0.848 0.644,-1.531 l -0.695,-0.617 -7.805,8.675 0.696,0.614 c 1.961,-1.524 3.613,-2.481 4.968,-2.895 1.364,-0.414 2.871,-0.41 4.532,0.008 1.668,0.414 3.175,1.234 4.527,2.453 1.543,1.399 2.402,2.91 2.57,4.559 0.172,1.629 -0.258,3.008 -1.273,4.129 -0.574,0.632 -1.297,1.105 -2.231,1.422 -0.91,0.328 -1.976,0.449 -3.183,0.363 -0.824,-0.067 -2.856,-0.473 -6.114,-1.223 -3.269,-0.75 -5.683,-1.164 -7.242,-1.277 -1.57,-0.102 -2.984,0.074 -4.242,0.512 -1.254,0.437 -2.351,1.175 -3.301,2.234 -1.632,1.816 -2.336,4.008 -2.117,6.566 0.211,2.575 1.387,4.836 3.547,6.774 1.348,1.222 3.063,2.164 5.168,2.875 0.98,0.308 1.617,0.605 1.91,0.851 0.309,0.301 0.492,0.641 0.52,1.012 0.035,0.387 -0.149,0.922 -0.547,1.609 l 0.683,0.618"
         style="fill:#abdee5;fill-opacity:1;fill-rule:nonzero;stroke:none"
         id="path106" /><path
         d="m 182.18,439.484 4.543,-6.605 -0.809,-0.5 c -0.898,1.09 -1.641,1.805 -2.238,2.16 -0.946,0.531 -1.91,0.777 -2.891,0.715 -0.976,-0.063 -2.047,-0.481 -3.242,-1.215 l -4.066,-2.547 13.769,-22.051 c 1.117,-1.785 2.008,-2.769 2.66,-2.972 0.91,-0.27 1.942,-0.047 3.043,0.648 l 0.989,0.625 0.496,-0.777 -12.282,-7.688 -0.488,0.782 1.031,0.644 c 1.235,0.781 1.875,1.707 1.938,2.766 0.023,0.644 -0.461,1.789 -1.481,3.414 l -13.773,22.055 -3.473,-2.176 c -1.34,-0.844 -2.242,-1.539 -2.679,-2.086 -0.571,-0.735 -0.891,-1.649 -0.918,-2.742 -0.055,-1.09 0.285,-2.329 0.988,-3.696 l -0.801,-0.504 -3.937,6.981 23.621,14.769"
         style="fill:#abdee5;fill-opacity:1;fill-rule:nonzero;stroke:none"
         id="path108" /><path
         d="m 211.758,450.746 -0.34,0.859 11.184,4.297 0.336,-0.863 -1.204,-0.461 c -1.238,-0.473 -2,-1.375 -2.273,-2.672 -0.129,-0.613 0.125,-1.793 0.805,-3.562 l 4.941,-12.903 c 1.234,-3.179 1.871,-5.773 1.906,-7.777 0.047,-2 -0.597,-3.984 -1.976,-5.945 -1.367,-1.977 -3.645,-3.563 -6.809,-4.789 -3.473,-1.332 -6.324,-1.739 -8.582,-1.215 -2.269,0.504 -4.156,1.64 -5.691,3.387 -1.028,1.203 -2.282,3.711 -3.75,7.539 l -4.766,12.429 c -0.746,1.946 -1.516,3.125 -2.289,3.524 -0.77,0.41 -1.75,0.375 -2.953,-0.086 l -1.188,-0.465 -0.343,0.875 13.726,5.266 0.328,-0.864 -1.218,-0.468 c -1.297,-0.504 -2.086,-1.282 -2.321,-2.317 -0.176,-0.703 0.074,-1.953 0.778,-3.738 l 5.3,-13.852 c 0.477,-1.23 1.141,-2.597 1.965,-4.109 0.848,-1.512 1.727,-2.598 2.664,-3.254 0.938,-0.668 2.09,-1.074 3.414,-1.227 1.336,-0.16 2.828,0.083 4.446,0.715 2.09,0.793 3.765,1.965 5.054,3.5 1.293,1.528 1.965,3.125 2.032,4.766 0.054,1.656 -0.559,4.152 -1.86,7.539 l -4.945,12.867 c -0.754,1.988 -1.445,3.145 -2.082,3.473 -0.875,0.457 -1.899,0.445 -3.094,-0.016 l -1.195,-0.453"
         style="fill:#abdee5;fill-opacity:1;fill-rule:nonzero;stroke:none"
         id="path110" /><path
         d="m 235.801,424.02 -0.129,0.921 1.262,0.168 c 1.418,0.215 2.371,0.809 2.832,1.801 0.285,0.598 0.3,1.848 0.031,3.746 l -3.07,21.852 c -0.289,2.094 -0.704,3.371 -1.254,3.847 -0.743,0.618 -1.754,0.852 -3.024,0.68 l -1.269,-0.18 -0.11,0.926 13.7,1.914 c 5.035,0.707 8.953,0.672 11.742,-0.101 2.781,-0.778 5.168,-2.387 7.136,-4.836 1.989,-2.442 3.211,-5.41 3.711,-8.914 0.657,-4.696 -0.222,-8.821 -2.625,-12.371 -2.707,-3.973 -7.328,-6.407 -13.867,-7.325 z m 9.265,3.847 c 2.161,-0.179 3.957,-0.16 5.387,0.043 3.836,0.528 6.832,2.336 8.981,5.391 2.156,3.051 2.894,6.894 2.254,11.519 -0.661,4.653 -2.446,8.149 -5.348,10.477 -2.914,2.332 -6.352,3.211 -10.328,2.66 -1.473,-0.211 -3.141,-0.699 -4.965,-1.437 l 4.019,-28.653 v 0"
         style="fill:#abdee5;fill-opacity:1;fill-rule:nonzero;stroke:none"
         id="path112" /><path
         d="m 286.238,428.906 -0.008,-0.929 -14.609,0.261 0.031,0.93 1.2,-0.023 c 1.414,-0.024 2.445,0.371 3.089,1.171 0.418,0.524 0.637,1.817 0.661,3.852 l 0.394,22.035 c 0.035,1.727 -0.051,2.871 -0.258,3.422 -0.175,0.418 -0.508,0.785 -1.015,1.094 -0.739,0.418 -1.508,0.633 -2.317,0.656 l -1.195,0.008 0.008,0.918 14.597,-0.246 -0.019,-0.926 -1.211,0.019 c -1.391,0.024 -2.422,-0.363 -3.063,-1.175 -0.433,-0.524 -0.656,-1.809 -0.687,-3.852 l -0.391,-22.035 c -0.031,-1.723 0.059,-2.863 0.266,-3.422 0.156,-0.418 0.5,-0.785 1.035,-1.09 0.707,-0.418 1.453,-0.625 2.274,-0.636 l 1.218,-0.032"
         style="fill:#abdee5;fill-opacity:1;fill-rule:nonzero;stroke:none"
         id="path114" /><path
         d="m 309.945,460.57 c 4.364,-0.691 7.879,-2.941 10.543,-6.777 2.668,-3.813 3.617,-8.203 2.836,-13.168 -0.816,-5.117 -3.097,-9.102 -6.855,-11.965 -3.754,-2.859 -7.922,-3.922 -12.492,-3.203 -4.625,0.731 -8.25,2.992 -10.872,6.785 -2.632,3.797 -3.523,8.297 -2.691,13.524 0.836,5.343 3.352,9.418 7.52,12.203 3.621,2.433 7.625,3.293 12.011,2.601 z m -0.75,-1.699 c -3.004,0.465 -5.593,-0.262 -7.75,-2.215 -2.711,-2.41 -4.476,-6.308 -5.332,-11.668 -0.863,-5.484 -0.379,-9.918 1.5,-13.25 1.434,-2.523 3.649,-4.031 6.594,-4.492 3.156,-0.508 5.945,0.317 8.395,2.457 2.445,2.137 4.082,5.867 4.921,11.172 0.907,5.77 0.461,10.238 -1.343,13.43 -1.469,2.535 -3.778,4.058 -6.985,4.566 v 0 0"
         style="fill:#abdee5;fill-opacity:1;fill-rule:nonzero;stroke:none"
         id="path116" /><path
         d="m 354.293,410.758 -8.527,3.273 -5.082,19.016 c -0.778,0.269 -1.422,0.5 -1.911,0.676 -0.207,0.082 -0.429,0.164 -0.632,0.277 -0.231,0.086 -0.469,0.184 -0.703,0.301 l -3.551,-9.258 c -0.774,-1.996 -1.028,-3.324 -0.774,-3.973 0.317,-0.914 1.075,-1.601 2.274,-2.047 l 1.222,-0.476 -0.324,-0.867 -13.621,5.218 0.328,0.868 1.184,-0.461 c 1.351,-0.504 2.461,-0.442 3.383,0.218 0.511,0.348 1.125,1.43 1.816,3.25 l 7.902,20.579 c 0.77,2 1.024,3.32 0.77,3.972 -0.348,0.918 -1.117,1.606 -2.324,2.071 l -1.18,0.453 0.316,0.867 11.594,-4.449 c 3.371,-1.289 5.77,-2.5 7.18,-3.598 1.422,-1.105 2.43,-2.539 3.031,-4.293 0.609,-1.75 0.566,-3.547 -0.133,-5.367 -0.738,-1.961 -2.043,-3.41 -3.863,-4.363 -1.828,-0.954 -4.195,-1.204 -7.094,-0.778 l 3.078,-11.64 c 0.7,-2.668 1.442,-4.567 2.266,-5.664 0.797,-1.11 2.043,-2.086 3.711,-2.934 z m -16.289,25.027 c 0.297,-0.117 0.551,-0.215 0.769,-0.312 0.207,-0.082 0.379,-0.157 0.528,-0.211 2.988,-1.149 5.519,-1.364 7.527,-0.633 2.031,0.73 3.438,2.105 4.219,4.144 0.754,1.985 0.766,3.836 0.016,5.559 -0.75,1.699 -2.145,2.957 -4.172,3.723 -0.883,0.355 -2.157,0.668 -3.801,0.972 l -5.086,-13.242 v 0"
         style="fill:#abdee5;fill-opacity:1;fill-rule:nonzero;stroke:none"
         id="path118" /><path
         d="m 391.391,426.602 0.48,0.785 10.164,-6.344 -0.496,-0.777 -1.086,0.672 c -1.121,0.714 -2.289,0.781 -3.5,0.199 -0.558,-0.254 -1.355,-1.172 -2.351,-2.778 l -7.329,-11.711 c -1.812,-2.902 -3.492,-4.957 -5.07,-6.21 -1.574,-1.227 -3.539,-1.899 -5.945,-1.997 -2.395,-0.086 -5.043,0.77 -7.918,2.579 -3.164,1.96 -5.203,3.992 -6.141,6.113 -0.953,2.113 -1.191,4.308 -0.715,6.574 0.352,1.543 1.59,4.063 3.762,7.539 l 7.063,11.281 c 1.105,1.774 1.574,3.086 1.437,3.95 -0.141,0.851 -0.758,1.625 -1.851,2.304 l -1.079,0.68 0.493,0.793 12.468,-7.797 -0.5,-0.781 -1.097,0.687 c -1.196,0.746 -2.282,0.899 -3.258,0.465 -0.676,-0.285 -1.52,-1.238 -2.516,-2.855 l -7.871,-12.582 c -0.707,-1.129 -1.398,-2.477 -2.101,-4.051 -0.704,-1.578 -1.036,-2.945 -1,-4.094 0.035,-1.137 0.394,-2.289 1.074,-3.449 0.691,-1.168 1.769,-2.203 3.25,-3.121 1.879,-1.18 3.84,-1.824 5.832,-1.938 2.008,-0.101 3.68,0.313 5.031,1.258 1.356,0.945 2.988,2.949 4.906,6.02 l 7.309,11.691 c 1.117,1.793 1.617,3.051 1.508,3.746 -0.16,0.977 -0.781,1.801 -1.875,2.473 l -1.078,0.676"
         style="fill:#abdee5;fill-opacity:1;fill-rule:nonzero;stroke:none"
         id="path120" /><path
         d="m 398.906,377.105 11.477,29.383 -16.371,-15.816 c -1.524,-1.449 -2.282,-2.535 -2.352,-3.211 -0.07,-0.949 0.367,-1.902 1.309,-2.883 l 0.847,-0.875 -0.668,-0.644 -8.304,8.617 0.652,0.637 0.852,-0.883 c 1.015,-1.039 2.039,-1.485 3.101,-1.317 0.649,0.11 1.653,0.828 3.02,2.153 l 16.015,15.453 c 1.079,1.054 1.754,1.929 2,2.64 0.18,0.524 0.18,1.106 -0.039,1.793 -0.203,0.688 -0.793,1.539 -1.769,2.555 l 0.668,0.633 6.777,-7.024 -10.629,-27.332 27.617,9.746 6.715,-6.957 -0.664,-0.648 -0.824,0.871 c -1.016,1.051 -2.063,1.496 -3.109,1.332 -0.649,-0.101 -1.664,-0.828 -3.043,-2.144 L 416.18,367.715 c -1.512,-1.449 -2.282,-2.535 -2.328,-3.235 -0.059,-0.937 0.367,-1.906 1.296,-2.875 l 0.844,-0.863 -0.672,-0.64 -10.136,10.5 0.668,0.64 0.839,-0.883 c 1.024,-1.054 2.063,-1.484 3.094,-1.32 0.645,0.109 1.676,0.824 3.035,2.149 l 16.371,15.812 -29.718,-10.484 -0.567,0.589"
         style="fill:#abdee5;fill-opacity:1;fill-rule:nonzero;stroke:none"
         id="path122" /><path
         d="m 450.004,310.395 0.125,-0.825 -9.664,-0.57 -9.457,24.613 0.871,0.344 0.453,-1.203 c 0.508,-1.348 1.324,-2.133 2.418,-2.383 0.613,-0.129 1.824,0.145 3.629,0.844 l 20.582,7.902 c 1.977,0.766 3.133,1.457 3.477,2.078 0.437,0.868 0.437,1.914 -0.016,3.11 l -0.461,1.187 0.863,0.336 5.528,-14.394 -0.868,-0.336 c -0.636,1.703 -1.246,2.828 -1.816,3.382 -0.582,0.547 -1.184,0.864 -1.77,0.93 -0.582,0.059 -1.816,-0.277 -3.691,-0.988 l -20.047,-7.707 c -1.305,-0.496 -2.144,-0.965 -2.543,-1.399 -0.25,-0.312 -0.402,-0.707 -0.402,-1.14 0,-0.461 0.387,-1.707 1.172,-3.758 l 0.89,-2.332 c 0.938,-2.441 1.786,-4.086 2.516,-4.93 0.742,-0.847 1.723,-1.504 2.953,-1.965 1.215,-0.464 2.981,-0.726 5.258,-0.796 v 0"
         style="fill:#abdee5;fill-opacity:1;fill-rule:nonzero;stroke:none"
         id="path124" /><path
         d="m 479.695,281.789 0.91,0.125 1.668,-11.859 -0.914,-0.129 -0.175,1.262 c -0.184,1.335 -0.883,2.273 -2.098,2.816 -0.555,0.277 -1.781,0.281 -3.66,0.023 l -13.672,-1.922 c -3.375,-0.476 -6.047,-0.507 -8.012,-0.105 -1.961,0.414 -3.738,1.504 -5.355,3.277 -1.598,1.774 -2.649,4.34 -3.125,7.719 -0.516,3.676 -0.266,6.559 0.742,8.641 1.008,2.074 2.543,3.66 4.59,4.761 1.39,0.739 4.117,1.391 8.187,1.965 l 13.188,1.856 c 2.07,0.281 3.375,0.758 3.937,1.422 0.567,0.66 0.758,1.629 0.586,2.902 l -0.179,1.266 0.929,0.132 2.031,-14.562 -0.918,-0.129 -0.175,1.293 c -0.2,1.391 -0.778,2.32 -1.735,2.785 -0.656,0.332 -1.925,0.367 -3.808,0.106 l -14.696,-2.067 c -1.316,-0.183 -2.796,-0.515 -4.453,-0.996 -1.656,-0.473 -2.914,-1.098 -3.777,-1.859 -0.863,-0.758 -1.5,-1.778 -1.957,-3.051 -0.445,-1.273 -0.551,-2.77 -0.305,-4.492 0.305,-2.199 1.067,-4.106 2.262,-5.711 1.223,-1.606 2.625,-2.625 4.203,-3.051 1.594,-0.43 4.188,-0.387 7.777,0.117 l 13.637,1.918 c 2.11,0.297 3.391,0.707 3.86,1.254 0.632,0.742 0.863,1.75 0.675,3.024 l -0.168,1.269"
         style="fill:#abdee5;fill-opacity:1;fill-rule:nonzero;stroke:none"
         id="path126" /><path
         d="m 463.68,249.293 -9.938,0.695 c -2.129,0.145 -3.469,0.004 -4.031,-0.425 -0.77,-0.586 -1.199,-1.516 -1.301,-2.801 l -0.078,-1.285 -0.922,0.058 1.012,14.547 0.926,-0.055 -0.086,-1.277 c -0.102,-1.445 0.289,-2.512 1.183,-3.187 0.493,-0.372 1.696,-0.625 3.633,-0.758 l 22.004,-1.547 c 2.145,-0.145 3.469,-0.004 4.016,0.41 0.781,0.602 1.218,1.547 1.308,2.828 l 0.082,1.281 0.93,-0.058 -0.871,-12.453 c -0.219,-3.047 -0.695,-5.422 -1.449,-7.133 -0.743,-1.711 -1.903,-3.113 -3.473,-4.215 -1.574,-1.098 -3.387,-1.574 -5.414,-1.441 -2.766,0.187 -4.965,1.273 -6.566,3.211 -1.614,1.96 -2.309,4.601 -2.079,7.937 0.067,0.82 0.184,1.703 0.372,2.645 0.183,0.945 0.433,1.957 0.742,3.023 z m 1.437,-0.098 c -0.23,-0.875 -0.414,-1.644 -0.551,-2.328 -0.117,-0.672 -0.203,-1.262 -0.242,-1.738 -0.117,-1.734 0.434,-3.274 1.703,-4.621 1.246,-1.348 2.938,-2.102 5.075,-2.246 1.468,-0.11 2.851,0.105 4.152,0.609 1.305,0.508 2.305,1.297 3.008,2.348 0.699,1.058 1.097,2.285 1.207,3.683 0.054,0.852 -0.028,1.95 -0.25,3.301 l -14.102,0.992 v 0"
         style="fill:#abdee5;fill-opacity:1;fill-rule:nonzero;stroke:none"
         id="path128" /><path
         d="m 443.395,213.742 -0.918,0.184 3.046,14.277 0.907,-0.191 -0.25,-1.192 c -0.293,-1.375 -0.114,-2.453 0.558,-3.246 0.434,-0.519 1.649,-0.976 3.645,-1.394 l 21.582,-4.594 c 1.676,-0.348 2.805,-0.484 3.387,-0.391 0.441,0.082 0.871,0.344 1.273,0.789 0.543,0.645 0.898,1.352 1.078,2.145 l 0.238,1.18 0.911,-0.2 -3.036,-14.265 -0.902,0.183 0.246,1.207 c 0.289,1.352 0.102,2.418 -0.562,3.215 -0.442,0.512 -1.641,0.992 -3.657,1.41 l -21.558,4.598 c -1.688,0.352 -2.817,0.481 -3.403,0.387 -0.445,-0.082 -0.863,-0.356 -1.273,-0.817 -0.543,-0.609 -0.891,-1.316 -1.055,-2.101 l -0.257,-1.184"
         style="fill:#abdee5;fill-opacity:1;fill-rule:nonzero;stroke:none"
         id="path130" /><path
         d="m 467.707,187.223 -12.484,5.043 -2.821,-6.961 c -0.703,-1.793 -0.933,-3.106 -0.629,-3.934 0.372,-1.094 1.457,-2.047 3.215,-2.867 l -0.343,-0.852 -11.012,4.438 0.351,0.867 c 1.621,-0.402 2.707,-0.59 3.219,-0.555 0.656,0.063 1.277,0.348 1.836,0.86 0.574,0.5 1.137,1.422 1.66,2.742 l 2.805,6.949 -10.418,4.223 c -1.391,0.562 -2.258,0.84 -2.621,0.84 -0.356,0 -0.688,-0.114 -0.988,-0.36 -0.305,-0.238 -0.637,-0.793 -0.977,-1.664 l -2.156,-5.34 c -0.735,-1.777 -1.125,-3.117 -1.203,-4.031 -0.078,-0.902 0.093,-1.875 0.535,-2.91 0.574,-1.356 1.617,-2.926 3.152,-4.711 l -0.379,-0.965 -6.824,5.926 9.855,24.344 0.852,-0.348 -0.469,-1.113 c -0.293,-0.754 -0.383,-1.535 -0.308,-2.36 0.054,-0.586 0.285,-1.074 0.715,-1.457 0.425,-0.382 1.406,-0.879 2.945,-1.507 l 20.543,-8.297 c 1.992,-0.805 3.297,-1.106 3.933,-0.883 0.848,0.308 1.536,1.109 2.067,2.418 l 0.441,1.121 0.864,-0.344 -9.836,-24.355 -7.09,2.488 0.371,0.906 c 1.801,-0.355 3.094,-0.469 3.894,-0.312 0.778,0.136 1.489,0.527 2.133,1.172 0.485,0.527 1.047,1.574 1.68,3.136 l 3.492,8.653"
         style="fill:#abdee5;fill-opacity:1;fill-rule:nonzero;stroke:none"
         id="path132" /><path
         d="m 456.879,157.457 -5.254,-7.516 -32.93,-2.418 16.114,-11.285 c 1.714,-1.207 2.937,-1.758 3.617,-1.675 0.953,0.113 1.789,0.726 2.586,1.832 l 0.683,0.976 0.754,-0.539 -6.859,-9.793 -0.762,0.535 0.703,0.992 c 0.836,1.188 1.055,2.289 0.707,3.289 -0.222,0.622 -1.121,1.481 -2.679,2.571 l -23.543,16.465 0.523,0.75 35.348,2.621 -17.184,12.051 c -1.723,1.191 -2.926,1.75 -3.613,1.683 -0.957,-0.125 -1.805,-0.738 -2.582,-1.836 l -0.695,-1.008 -0.747,0.547 6.872,9.809 0.757,-0.535 -0.703,-0.977 c -0.84,-1.211 -1.086,-2.308 -0.715,-3.308 0.227,-0.629 1.118,-1.477 2.692,-2.567 l 19.402,-13.59 c 1.516,0.141 2.57,0.321 3.152,0.52 0.598,0.211 1.317,0.625 2.149,1.25 0.394,0.312 0.879,0.887 1.457,1.679 l 0.75,-0.523"
         style="fill:#abdee5;fill-opacity:1;fill-rule:nonzero;stroke:none"
         id="path134" /><path
         d="m 411.254,101.641 -8.024,8.613 0.672,0.633 c 1.754,-1.453 3.371,-2.395 4.871,-2.844 1.469,-0.441 3,-0.469 4.606,-0.063 1.594,0.415 2.949,1.137 4.09,2.196 1.265,1.191 1.961,2.558 2.07,4.125 0.102,1.551 -0.301,2.828 -1.23,3.82 -0.707,0.754 -1.625,1.199 -2.727,1.332 -1.609,0.207 -4.57,-0.25 -8.852,-1.375 -3.5,-0.926 -5.98,-1.461 -7.453,-1.586 -1.484,-0.121 -2.871,0.047 -4.172,0.531 -1.296,0.469 -2.417,1.207 -3.343,2.196 -1.754,1.894 -2.543,4.199 -2.34,6.929 0.176,2.739 1.426,5.168 3.726,7.329 0.723,0.66 1.454,1.238 2.196,1.718 0.441,0.297 1.445,0.801 3,1.528 1.547,0.722 2.496,1.238 2.816,1.535 0.293,0.285 0.453,0.601 0.461,0.957 0.008,0.351 -0.234,0.863 -0.683,1.512 l 0.683,0.636 7.957,-8.523 -0.68,-0.637 c -1.98,1.488 -3.656,2.43 -5.023,2.801 -1.363,0.391 -2.883,0.363 -4.531,-0.078 -1.668,-0.449 -3.149,-1.293 -4.473,-2.52 -1.531,-1.433 -2.367,-2.957 -2.496,-4.609 -0.125,-1.637 0.313,-3.004 1.348,-4.106 0.558,-0.613 1.316,-1.082 2.23,-1.402 0.93,-0.305 1.988,-0.418 3.203,-0.289 0.817,0.07 2.856,0.512 6.098,1.32 3.25,0.797 5.652,1.258 7.23,1.403 1.563,0.136 2.965,-0.008 4.235,-0.43 1.265,-0.422 2.386,-1.141 3.344,-2.18 1.671,-1.789 2.414,-3.972 2.238,-6.55 -0.172,-2.567 -1.309,-4.84 -3.43,-6.817 -1.32,-1.238 -3.043,-2.223 -5.121,-2.953 -0.973,-0.348 -1.609,-0.648 -1.891,-0.91 -0.308,-0.285 -0.488,-0.633 -0.507,-1.004 -0.028,-0.383 0.171,-0.914 0.578,-1.606 l -0.676,-0.632"
         style="fill:#abdee5;fill-opacity:1;fill-rule:nonzero;stroke:none"
         id="path136" /><path
         d="m 368.75,112.254 -0.527,0.742 11.961,8.367 0.527,-0.742 -0.988,-0.695 c -1.16,-0.809 -1.766,-1.731 -1.821,-2.774 -0.015,-0.664 0.563,-1.839 1.735,-3.504 l 12.636,-18.0542 c 0.989,-1.4063 1.715,-2.2735 2.219,-2.6055 0.379,-0.25 0.867,-0.3438 1.461,-0.293 0.86,0.0938 1.602,0.3789 2.258,0.836 l 0.977,0.6914 0.539,-0.7579 -11.961,-8.375 -0.528,0.7657 0.985,0.7031 c 1.156,0.793 1.754,1.7148 1.8,2.7344 0.028,0.6875 -0.539,1.8515 -1.699,3.5195 l -12.656,18.0745 c -0.977,1.398 -1.727,2.269 -2.211,2.59 -0.375,0.261 -0.879,0.339 -1.488,0.277 -0.817,-0.082 -1.563,-0.348 -2.211,-0.801 l -1.008,-0.699"
         style="fill:#abdee5;fill-opacity:1;fill-rule:nonzero;stroke:none"
         id="path138" /><path
         d="m 358.602,68.8398 -5.145,10.5704 0.836,0.4062 c 1.242,-1.8945 2.531,-3.2773 3.816,-4.1367 1.286,-0.8594 2.75,-1.332 4.387,-1.4063 1.645,-0.0781 3.16,0.2305 4.551,0.9024 1.562,0.7695 2.637,1.8633 3.183,3.3242 0.559,1.4609 0.532,2.7969 -0.058,4.0234 -0.461,0.9336 -1.188,1.6211 -2.219,2.0782 -1.48,0.6797 -4.433,1.082 -8.871,1.2539 -3.605,0.1406 -6.133,0.3593 -7.59,0.6836 -1.445,0.3086 -2.715,0.875 -3.824,1.7187 -1.105,0.836 -1.957,1.8711 -2.539,3.0899 -1.145,2.3203 -1.219,4.7461 -0.238,7.2968 0.98,2.5585 2.886,4.5355 5.718,5.9185 0.883,0.433 1.754,0.769 2.61,1.007 0.508,0.149 1.605,0.352 3.297,0.586 1.707,0.235 2.754,0.453 3.148,0.633 0.379,0.199 0.609,0.453 0.731,0.785 0.093,0.332 0.023,0.883 -0.211,1.645 l 0.832,0.414 5.113,-10.4963 -0.844,-0.3984 c -1.457,2.0037 -2.773,3.3907 -3.965,4.1527 -1.203,0.781 -2.656,1.183 -4.367,1.242 -1.719,0.055 -3.398,-0.317 -5.019,-1.102 -1.887,-0.914 -3.121,-2.148 -3.735,-3.6755 -0.597,-1.5196 -0.57,-2.9649 0.094,-4.3164 0.359,-0.7657 0.949,-1.4336 1.727,-1.9922 0.796,-0.5742 1.777,-0.9805 2.984,-1.211 0.797,-0.1757 2.875,-0.3476 6.207,-0.5234 3.34,-0.1797 5.781,-0.4297 7.309,-0.7617 1.554,-0.336 2.855,-0.8867 3.953,-1.6563 1.082,-0.7812 1.933,-1.789 2.547,-3.0703 1.07,-2.1875 1.148,-4.4961 0.242,-6.9101 -0.926,-2.3985 -2.692,-4.2305 -5.301,-5.5196 -1.625,-0.7968 -3.547,-1.2304 -5.75,-1.3281 -1.02,-0.0351 -1.723,-0.1406 -2.059,-0.3125 -0.39,-0.1914 -0.66,-0.4648 -0.797,-0.8242 -0.125,-0.3438 -0.113,-0.9141 0.09,-1.6914 l -0.843,-0.3985"
         style="fill:#abdee5;fill-opacity:1;fill-rule:nonzero;stroke:none"
         id="path140" /><path
         d="m 265.785,67.9336 c 0,6.4531 5.231,11.6875 11.668,11.6875 6.477,0 11.707,-5.2344 11.707,-11.6875 0,-6.457 -5.23,-11.6914 -11.707,-11.6914 -6.437,0 -11.668,5.2344 -11.668,11.6914 v 0 0"
         style="fill:#abdee5;fill-opacity:1;fill-rule:nonzero;stroke:none"
         id="path142" /><path
         d="m 285.793,189.684 c 24.504,1.91 46.738,11.898 64.031,27.32 l -7.316,8.363 C 326.949,211.465 306.934,202.453 284.867,200.75 l 0.926,-11.066 v 0"
         style="fill:#abdee5;fill-opacity:1;fill-rule:nonzero;stroke:none"
         id="path144" /><path
         d="m 202.039,219.348 c 18.359,-17.438 42.781,-28.551 69.774,-29.868 l 0.566,11.09 c -24.207,1.176 -46.109,11.129 -62.594,26.739 l -7.746,-7.961 v 0"
         style="fill:#abdee5;fill-opacity:1;fill-rule:nonzero;stroke:none"
         id="path146" /><path
         d="m 272.559,396.445 c -22.137,-1.031 -42.356,-9.402 -58.282,-22.742 l -7.07,8.567 c 17.734,14.828 40.246,24.136 64.895,25.273 l 0.457,-11.098 v 0"
         style="fill:#abdee5;fill-opacity:1;fill-rule:nonzero;stroke:none"
         id="path148" /><path
         d="m 375.051,292.137 c -1.41,-22.047 -10.11,-42.114 -23.715,-57.809 l 8.394,-7.269 c 15.141,17.464 24.829,39.789 26.407,64.32 l -11.086,0.758 v 0"
         style="fill:#abdee5;fill-opacity:1;fill-rule:nonzero;stroke:none"
         id="path150" /><path
         d="m 386.148,305.461 c -1.539,24.516 -11.175,46.828 -26.261,64.312 l -8.465,-7.195 c 13.586,-15.723 22.266,-35.812 23.644,-57.875 l 11.082,0.758 v 0"
         style="fill:#abdee5;fill-opacity:1;fill-rule:nonzero;stroke:none"
         id="path152" /><path
         d="m 350.02,379.828 c -17.282,15.481 -39.52,25.535 -64.051,27.485 l -0.754,-11.079 c 21.969,-1.781 41.89,-10.796 57.375,-24.66 l 7.43,8.254 v 0"
         style="fill:#abdee5;fill-opacity:1;fill-rule:nonzero;stroke:none"
         id="path154" /><path
         d="M 205.172,365.027 C 191.008,349.695 181.676,329.844 179.59,307.879 L 168.547,309 c 2.332,24.445 12.726,46.535 28.492,63.59 l 8.133,-7.563 v 0"
         style="fill:#abdee5;fill-opacity:1;fill-rule:nonzero;stroke:none"
         id="path156" /><path
         d="m 168.105,295.02 c 0.778,-24.743 9.782,-47.415 24.383,-65.356 l 8.633,6.992 c -13.105,16.102 -21.203,36.438 -21.914,58.641 l -11.102,-0.277 v 0"
         style="fill:#abdee5;fill-opacity:1;fill-rule:nonzero;stroke:none"
         id="path158" /><path
         d="m 341.52,298.52 c 0,-35.45 -28.739,-64.196 -64.196,-64.196 -35.453,0 -64.195,28.746 -64.195,64.196 0,35.472 28.742,64.21 64.195,64.21 35.457,0 64.196,-28.738 64.196,-64.21 z m -2.934,-16.332 c -6,3.019 -10.109,9.226 -10.109,16.398 0,7.074 4.007,13.211 9.867,16.266 l 0.101,0.039 c -6.707,-0.485 -13.398,2.75 -17.07,8.914 -3.629,6.074 -3.316,13.402 0.176,19.031 l -0.063,0.035 c -5.738,-3.461 -13.183,-3.644 -19.254,0.184 -5.984,3.781 -9.043,10.433 -8.488,17.035 l -0.027,0.035 c -3.016,-5.992 -9.215,-10.102 -16.395,-10.102 -7.066,0 -13.211,4.008 -16.269,9.872 l -0.141,0.171 c 0.563,-6.601 -2.5,-13.265 -8.488,-17.031 -6.082,-3.824 -13.52,-3.656 -19.274,-0.18 l -0.05,-0.054 c 3.492,-5.613 3.796,-12.946 0.179,-19.031 -3.664,-6.168 -10.375,-9.391 -17.066,-8.911 l 0.086,-0.043 c 5.879,-3.043 9.887,-9.179 9.887,-16.257 0,-7.18 -4.122,-13.383 -10.122,-16.391 l 0.149,0.02 c 6.691,0.484 13.402,-2.747 17.066,-8.907 3.617,-6.086 3.313,-13.402 -0.179,-19.035 l 0.05,-0.039 c 5.754,3.477 13.192,3.637 19.274,-0.18 5.988,-3.769 9.051,-10.445 8.488,-17.039 l 0.141,0.172 c 3.058,5.867 9.203,9.891 16.269,9.891 7.18,0 13.379,-4.133 16.395,-10.125 l 0.027,0.047 c -0.555,6.582 2.504,13.257 8.488,17.011 6.071,3.84 13.516,3.661 19.254,0.196 l 0.063,0.043 c -3.492,5.644 -3.805,12.953 -0.176,19.023 3.641,6.137 10.297,9.367 16.949,8.934 l 0.262,0.008 v 0"
         style="fill:#abdee5;fill-opacity:1;fill-rule:nonzero;stroke:none"
         id="path160" /><path
         d="m 277.164,203.527 c -4.203,0.309 -7.75,2.657 -9.351,5.907 l -0.032,0.089 c -0.179,0.442 -0.695,1.579 -1.117,1.645 -0.543,0.066 -1.633,-1.445 -1.633,-1.445 -2.554,-2.934 -7.008,-4.278 -11.465,-3.094 -4.519,1.18 -7.746,4.605 -8.48,8.465 0,0 -0.16,1.765 -0.621,2.031 -0.414,0.234 -1.863,-1 -1.863,-1 -3.235,-2.242 -7.946,-2.434 -12.004,-0.117 -4.121,2.359 -6.364,6.613 -5.985,10.574 0,0 0.356,1.801 0.008,2.07 -0.394,0.321 -1.969,-0.55 -1.969,-0.55 -3.726,-1.446 -8.418,-0.411 -11.816,2.925 -3.41,3.395 -4.453,8.161 -2.981,11.914 l 0.043,0.059 c 0.125,0.262 0.778,1.602 0.582,1.863 -0.21,0.27 -1.976,-0.086 -1.976,-0.086 h -0.043 c -4.016,-0.507 -8.375,1.711 -10.805,5.868 -2.449,4.203 -2.211,9.152 0.285,12.402 0,0 1.231,1.32 1.114,1.605 -0.153,0.356 -1.942,0.383 -1.942,0.383 -4.066,0.508 -7.773,3.793 -9.058,8.485 -1.293,4.75 0.277,9.515 3.609,11.988 l 0.043,0.027 c 0.273,0.156 1.488,0.895 1.453,1.188 -0.035,0.273 -1.758,0.754 -1.758,0.754 -3.875,1.488 -6.672,5.664 -6.687,10.578 v 0.593 c 0.168,4.399 2.555,8.141 5.933,9.786 l 0.082,0.035 c 0.446,0.168 1.586,0.691 1.637,1.109 0.078,0.539 -1.437,1.637 -1.437,1.637 -2.922,2.551 -4.278,7.012 -3.094,11.465 1.18,4.508 4.609,7.746 8.465,8.488 0,0 1.769,0.137 2.047,0.609 0.218,0.407 -1.02,1.86 -1.02,1.86 -2.242,3.226 -2.43,7.953 -0.117,12 2.375,4.117 6.609,6.367 10.59,5.992 0,0 1.785,-0.363 2.054,-0.012 0.313,0.406 -0.55,1.969 -0.55,1.969 -1.442,3.73 -0.41,8.437 2.925,11.812 3.387,3.422 8.165,4.473 11.918,2.977 l 0.051,-0.023 c 0.27,-0.125 1.617,-0.786 1.864,-0.598 0.281,0.215 -0.075,1.988 -0.075,1.988 v 0.028 c -0.508,4.027 1.703,8.39 5.867,10.816 4.208,2.457 9.141,2.195 12.391,-0.281 0,0 1.324,-1.239 1.609,-1.121 0.356,0.152 0.391,1.945 0.391,1.945 0.5,4.055 3.781,7.777 8.484,9.066 4.754,1.285 9.516,-0.285 11.977,-3.605 l 0.039,-0.059 c 0.16,-0.273 0.891,-1.484 1.18,-1.453 0.285,0.039 0.754,1.758 0.754,1.758 1.332,3.484 4.843,6.09 9.117,6.594 l 0.051,0.015 c 0.5,0.059 1.011,0.09 1.539,0.086 4.914,-0.019 9.105,-2.816 10.59,-6.695 0,0 0.461,-1.719 0.742,-1.758 0.289,-0.031 1.027,1.18 1.183,1.453 l 0.036,0.059 c 2.468,3.32 7.238,4.89 11.992,3.605 4.695,-1.289 7.988,-5.011 8.48,-9.066 0,0 0.024,-1.793 0.387,-1.945 0.285,-0.118 1.613,1.121 1.613,1.121 3.242,2.476 8.188,2.738 12.395,0.281 4.16,-2.426 6.371,-6.789 5.863,-10.816 v -0.028 c 0,0 -0.352,-1.773 -0.074,-1.988 0.242,-0.188 1.594,0.473 1.863,0.598 l 0.035,0.023 c 3.766,1.496 8.535,0.445 11.922,-2.977 3.34,-3.375 4.371,-8.082 2.941,-11.812 0,0 -0.875,-1.563 -0.562,-1.969 0.277,-0.351 2.062,0.012 2.062,0.012 3.985,0.375 8.219,-1.875 10.579,-5.992 2.316,-4.047 2.144,-8.774 -0.114,-12 0,0 -1.25,-1.453 -1.007,-1.86 0.273,-0.472 2.042,-0.609 2.042,-0.609 3.852,-0.742 7.278,-3.98 8.473,-8.488 1.168,-4.453 -0.176,-8.914 -3.105,-11.465 0,0 -1.516,-1.098 -1.434,-1.637 0.047,-0.418 1.191,-0.941 1.629,-1.109 L 366,308.434 c 3.375,-1.645 5.758,-5.387 5.941,-9.786 v -0.593 c -0.019,-4.914 -2.808,-9.09 -6.691,-10.578 0,0 -1.715,-0.481 -1.762,-0.754 -0.039,-0.293 1.184,-1.032 1.453,-1.188 l 0.051,-0.027 c 3.324,-2.473 4.906,-7.238 3.606,-11.988 -1.282,-4.692 -5.004,-7.977 -9.059,-8.485 0,0 -1.793,-0.027 -1.941,-0.383 -0.118,-0.285 1.125,-1.605 1.125,-1.605 2.472,-3.25 2.73,-8.199 0.273,-12.402 -2.43,-4.157 -6.777,-6.375 -10.82,-5.868 h -0.028 c 0,0 -1.761,0.356 -1.976,0.086 -0.192,-0.261 0.461,-1.601 0.598,-1.863 l 0.023,-0.059 c 1.484,-3.753 0.434,-8.519 -2.988,-11.914 -3.375,-3.336 -8.082,-4.371 -11.805,-2.925 0,0 -1.562,0.871 -1.965,0.55 -0.355,-0.269 0.008,-2.07 0.008,-2.07 0.383,-3.961 -1.871,-8.215 -5.984,-10.574 -4.059,-2.317 -8.778,-2.125 -12.008,0.117 0,0 -1.457,1.234 -1.86,1 -0.472,-0.266 -0.621,-2.031 -0.621,-2.031 -0.738,-3.86 -3.976,-7.285 -8.476,-8.465 -4.457,-1.184 -8.926,0.16 -11.477,3.094 0,0 -1.09,1.511 -1.633,1.445 -0.414,-0.066 -0.933,-1.203 -1.117,-1.645 l -0.023,-0.089 c -1.602,-3.278 -5.196,-5.637 -9.446,-5.914 z m 0.16,179.481 c -46.668,0 -84.48,-37.817 -84.48,-84.481 0,-46.656 37.812,-84.48 84.48,-84.48 46.66,0 84.485,37.824 84.485,84.48 0,46.664 -37.825,84.481 -84.485,84.481 v 0 0"
         style="fill:#abdee5;fill-opacity:1;fill-rule:nonzero;stroke:none"
         id="path162" /><path
         d="m 286.207,372.598 c 0,-4.305 -3.492,-7.801 -7.801,-7.801 -4.304,0 -7.801,3.496 -7.801,7.801 0,4.304 3.497,7.8 7.801,7.8 4.309,0 7.801,-3.496 7.801,-7.8 v 0 0"
         style="fill:#abdee5;fill-opacity:1;fill-rule:nonzero;stroke:none"
         id="path164" /><path
         d="m 305.305,369.82 c 0,-4.3 -3.492,-7.797 -7.797,-7.797 -4.305,0 -7.801,3.497 -7.801,7.797 0,4.309 3.496,7.801 7.801,7.801 4.305,0 7.797,-3.492 7.797,-7.801 v 0 0"
         style="fill:#abdee5;fill-opacity:1;fill-rule:nonzero;stroke:none"
         id="path166" /><path
         d="m 323.148,362.109 c 0,-4.308 -3.492,-7.8 -7.796,-7.8 -4.305,0 -7.801,3.492 -7.801,7.8 0,4.305 3.496,7.801 7.801,7.801 4.304,0 7.796,-3.496 7.796,-7.801 v 0 0"
         style="fill:#abdee5;fill-opacity:1;fill-rule:nonzero;stroke:none"
         id="path168" /><path
         d="m 338.363,350.027 c 0,-4.304 -3.496,-7.797 -7.8,-7.797 -4.309,0 -7.797,3.493 -7.797,7.797 0,4.309 3.488,7.801 7.797,7.801 4.304,0 7.8,-3.492 7.8,-7.801 v 0 0"
         style="fill:#abdee5;fill-opacity:1;fill-rule:nonzero;stroke:none"
         id="path170" /><path
         d="m 349.934,334.422 c 0,-4.305 -3.496,-7.801 -7.801,-7.801 -4.305,0 -7.797,3.496 -7.797,7.801 0,4.308 3.492,7.801 7.797,7.801 4.305,0 7.801,-3.493 7.801,-7.801 v 0 0"
         style="fill:#abdee5;fill-opacity:1;fill-rule:nonzero;stroke:none"
         id="path172" /><path
         d="m 357.027,316.402 c 0,-4.304 -3.492,-7.8 -7.8,-7.8 -4.301,0 -7.801,3.496 -7.801,7.8 0,4.305 3.5,7.797 7.801,7.797 4.308,0 7.8,-3.492 7.8,-7.797 v 0 0"
         style="fill:#abdee5;fill-opacity:1;fill-rule:nonzero;stroke:none"
         id="path174" /><path
         d="m 359.199,297.07 c 0,-4.304 -3.492,-7.797 -7.801,-7.797 -4.304,0 -7.796,3.493 -7.796,7.797 0,4.305 3.492,7.793 7.796,7.793 4.309,0 7.801,-3.488 7.801,-7.793 v 0 0"
         style="fill:#abdee5;fill-opacity:1;fill-rule:nonzero;stroke:none"
         id="path176" /><path
         d="m 356.266,277.805 c 0,-4.305 -3.496,-7.801 -7.805,-7.801 -4.301,0 -7.793,3.496 -7.793,7.801 0,4.304 3.492,7.8 7.793,7.8 4.309,0 7.805,-3.496 7.805,-7.8 v 0 0"
         style="fill:#abdee5;fill-opacity:1;fill-rule:nonzero;stroke:none"
         id="path178" /><path
         d="m 348.531,260.215 c 0,-4.305 -3.492,-7.797 -7.801,-7.797 -4.304,0 -7.796,3.492 -7.796,7.797 0,4.308 3.492,7.797 7.796,7.797 4.309,0 7.801,-3.489 7.801,-7.797 v 0 0"
         style="fill:#abdee5;fill-opacity:1;fill-rule:nonzero;stroke:none"
         id="path180" /><path
         d="m 336.297,244.969 c 0,-4.309 -3.492,-7.797 -7.797,-7.797 -4.309,0 -7.801,3.488 -7.801,7.797 0,4.308 3.492,7.797 7.801,7.797 4.305,0 7.797,-3.489 7.797,-7.797 v 0 0"
         style="fill:#abdee5;fill-opacity:1;fill-rule:nonzero;stroke:none"
         id="path182" /><path
         d="m 320.699,233.539 c 0,-4.305 -3.492,-7.801 -7.801,-7.801 -4.304,0 -7.796,3.496 -7.796,7.801 0,4.309 3.492,7.801 7.796,7.801 4.309,0 7.801,-3.492 7.801,-7.801 v 0 0"
         style="fill:#abdee5;fill-opacity:1;fill-rule:nonzero;stroke:none"
         id="path184" /><path
         d="m 302.543,226.523 c 0,-4.308 -3.496,-7.804 -7.801,-7.804 -4.308,0 -7.801,3.496 -7.801,7.804 0,4.301 3.493,7.797 7.801,7.797 4.305,0 7.801,-3.496 7.801,-7.797 v 0 0"
         style="fill:#abdee5;fill-opacity:1;fill-rule:nonzero;stroke:none"
         id="path186" /><path
         d="m 284.832,224.465 c 0,-4.309 -3.492,-7.801 -7.797,-7.801 -4.305,0 -7.801,3.492 -7.801,7.801 0,4.305 3.496,7.801 7.801,7.801 4.305,0 7.797,-3.496 7.797,-7.801 v 0 0"
         style="fill:#abdee5;fill-opacity:1;fill-rule:nonzero;stroke:none"
         id="path188" /><path
         d="m 265.566,227.074 c 0,-4.308 -3.492,-7.801 -7.8,-7.801 -4.301,0 -7.797,3.493 -7.797,7.801 0,4.305 3.496,7.797 7.797,7.797 4.308,0 7.8,-3.492 7.8,-7.797 v 0 0"
         style="fill:#abdee5;fill-opacity:1;fill-rule:nonzero;stroke:none"
         id="path190" /><path
         d="m 247.75,234.574 c 0,-4.308 -3.492,-7.801 -7.801,-7.801 -4.304,0 -7.801,3.493 -7.801,7.801 0,4.301 3.497,7.797 7.801,7.797 4.309,0 7.801,-3.496 7.801,-7.797 v 0 0"
         style="fill:#abdee5;fill-opacity:1;fill-rule:nonzero;stroke:none"
         id="path192" /><path
         d="m 232.402,246.504 c 0,-4.309 -3.496,-7.805 -7.8,-7.805 -4.305,0 -7.797,3.496 -7.797,7.805 0,4.305 3.492,7.797 7.797,7.797 4.304,0 7.8,-3.492 7.8,-7.797 v 0 0"
         style="fill:#abdee5;fill-opacity:1;fill-rule:nonzero;stroke:none"
         id="path194" /><path
         d="m 220.699,261.949 c 0,-4.304 -3.496,-7.801 -7.801,-7.801 -4.304,0 -7.8,3.497 -7.8,7.801 0,4.309 3.496,7.801 7.8,7.801 4.305,0 7.801,-3.492 7.801,-7.801 v 0 0"
         style="fill:#abdee5;fill-opacity:1;fill-rule:nonzero;stroke:none"
         id="path196" /><path
         d="m 213.387,280 c 0,-4.305 -3.492,-7.801 -7.797,-7.801 -4.309,0 -7.801,3.496 -7.801,7.801 0,4.309 3.492,7.801 7.801,7.801 4.305,0 7.797,-3.492 7.797,-7.801 v 0 0"
         style="fill:#abdee5;fill-opacity:1;fill-rule:nonzero;stroke:none"
         id="path198" /><path
         d="m 211.047,299.215 c 0,-4.309 -3.492,-7.805 -7.797,-7.805 -4.305,0 -7.797,3.496 -7.797,7.805 0,4.305 3.492,7.793 7.797,7.793 4.305,0 7.797,-3.488 7.797,-7.793 v 0 0"
         style="fill:#abdee5;fill-opacity:1;fill-rule:nonzero;stroke:none"
         id="path200" /><path
         d="m 213.746,318.406 c 0,-4.308 -3.496,-7.797 -7.801,-7.797 -4.304,0 -7.8,3.489 -7.8,7.797 0,4.305 3.496,7.797 7.8,7.797 4.305,0 7.801,-3.492 7.801,-7.797 v 0 0"
         style="fill:#abdee5;fill-opacity:1;fill-rule:nonzero;stroke:none"
         id="path202" /><path
         d="m 221.352,336.242 c 0,-4.308 -3.493,-7.801 -7.801,-7.801 -4.305,0 -7.801,3.493 -7.801,7.801 0,4.301 3.496,7.797 7.801,7.797 4.308,0 7.801,-3.496 7.801,-7.797 v 0 0"
         style="fill:#abdee5;fill-opacity:1;fill-rule:nonzero;stroke:none"
         id="path204" /><path
         d="m 233.316,351.473 c 0,-4.309 -3.492,-7.801 -7.8,-7.801 -4.305,0 -7.801,3.492 -7.801,7.801 0,4.304 3.496,7.797 7.801,7.797 4.308,0 7.8,-3.493 7.8,-7.797 v 0 0"
         style="fill:#abdee5;fill-opacity:1;fill-rule:nonzero;stroke:none"
         id="path206" /><path
         d="m 248.906,363.156 c 0,-4.304 -3.492,-7.801 -7.801,-7.801 -4.3,0 -7.796,3.497 -7.796,7.801 0,4.305 3.496,7.801 7.796,7.801 4.309,0 7.801,-3.496 7.801,-7.801 v 0 0"
         style="fill:#abdee5;fill-opacity:1;fill-rule:nonzero;stroke:none"
         id="path208" /><path
         d="m 266.914,370.344 c 0,-4.305 -3.496,-7.797 -7.797,-7.797 -4.308,0 -7.801,3.492 -7.801,7.797 0,4.304 3.493,7.801 7.801,7.801 4.301,0 7.797,-3.497 7.797,-7.801 v 0 0"
         style="fill:#abdee5;fill-opacity:1;fill-rule:nonzero;stroke:none"
         id="path210" /><path
         d="m 326.227,298.492 c 0,-26.988 -21.875,-48.875 -48.872,-48.875 -26.992,0 -48.875,21.887 -48.875,48.875 0,26.996 21.883,48.875 48.875,48.875 26.997,0 48.872,-21.879 48.872,-48.875 z m -34.133,26.774 c 3.176,-1.75 6.011,-4.055 8.371,-6.782 l 0.027,-0.027 12.219,9.488 0.051,0.051 c -3.801,4.555 -8.469,8.367 -13.75,11.188 l -0.016,0.011 -6.898,-13.828 z m 10.16,-9.055 c 2.07,-2.902 3.648,-6.191 4.609,-9.731 l 0.043,-0.003 15.137,3.296 0.004,0.004 c -1.473,5.836 -4.059,11.239 -7.524,15.957 l -0.011,0.028 -12.266,-9.528 z m 5.219,-12.512 c 0.293,-1.687 0.437,-3.429 0.437,-5.203 0,-1.898 -0.168,-3.754 -0.504,-5.562 l 0.082,-0.02 15.047,-3.512 v 0.008 c 0.59,2.938 0.903,9.086 0.903,9.086 0,2.91 -0.27,5.754 -0.786,8.512 h -0.004 z m -0.7,-13.519 c -1.011,-3.567 -2.652,-6.871 -4.796,-9.782 l 0.035,-0.023 12.066,-9.699 0.012,-0.004 c 3.566,4.699 6.25,10.105 7.801,15.973 v 0.007 l -15.125,3.524 m -6.563,-11.973 c -2.406,-2.707 -5.285,-4.984 -8.504,-6.699 l 0.016,-0.031 6.699,-13.965 0.004,-0.008 c 5.312,2.738 10.027,6.48 13.891,10.973 l -0.039,0.039 -12.04,9.668 z m -11.058,-7.91 c -3.282,-1.367 -6.848,-2.184 -10.582,-2.328 l -0.008,-0.067 v -15.445 -0.019 c 6.152,0.148 11.996,1.515 17.312,3.855 l -0.004,0.016 -6.707,13.961 z m -23.887,56.273 c 3.238,1.395 6.773,2.247 10.472,2.442 v 0.148 15.364 0.031 c -6.109,-0.207 -11.921,-1.613 -17.203,-3.985 v -0.003 l 6.715,-13.989 m -12.629,-10.144 -12.097,9.722 -0.012,0.008 c -3.512,-4.668 -6.152,-10.023 -7.691,-15.836 l 0.007,-0.004 15.11,-3.515 h 0.008 c 1,3.496 2.589,6.754 4.679,9.617 z m -5.398,-22.961 c -0.274,1.633 -0.414,3.312 -0.414,5.027 0,1.899 0.176,3.742 0.504,5.551 l -0.012,0.004 -15.121,3.523 -0.004,-0.027 c -0.586,-2.93 -0.891,-9.051 -0.891,-9.051 0,-2.84 0.254,-5.617 0.746,-8.32 l 0.004,-0.024 15.196,3.309 z m 5.07,-12.438 c -2.023,2.903 -3.551,6.16 -4.476,9.664 l -0.004,-0.004 -15.184,-3.304 0.004,-0.004 c 1.438,-5.805 3.98,-11.176 7.375,-15.879 l 0.012,-0.008 12.277,9.524 z m 9.961,-9.105 c -3.129,1.793 -5.922,4.117 -8.234,6.847 l -0.137,-0.097 -12.133,-9.414 0.008,-0.016 c 0,0 8.363,-8.394 13.586,-11.246 l 0.016,-0.004 0.039,0.063 6.906,13.847 z m 13.484,-3.942 c -3.875,0.2 -7.554,1.125 -10.914,2.637 l -0.023,-0.031 -6.914,-13.871 h 0.008 c 5.453,-2.547 11.488,-4.055 17.843,-4.281 v 0.015 z m -13.015,57.329 -6.727,14.015 v 0.008 c -5.254,-2.758 -9.902,-6.492 -13.718,-10.969 l 0.027,-0.012 12.016,-9.66 0.058,-0.058 c 2.359,2.691 5.188,4.953 8.344,6.679 m 27.09,-22.574 14.148,3.086 0.051,0.043 c -0.863,3.102 -2.242,5.981 -4.059,8.535 l -0.015,0.039 -11.477,-8.918 0.024,-0.047 c 0.507,-0.808 0.929,-1.664 1.25,-2.574 z m -2.774,-13.961 -0.426,0.344 -0.023,0.023 c -0.699,-0.687 -1.477,-1.304 -2.312,-1.824 l -0.149,-0.066 0.078,-0.141 6.219,-12.965 0.012,-0.015 c 2.828,1.523 5.363,3.523 7.492,5.894 l -0.039,0.032 z m -8.476,-3.519 v -14.317 l 0.008,-0.066 c 3.285,0.141 6.425,0.855 9.312,2.051 l -0.016,0.039 -6.218,12.945 -0.055,0.149 c -0.969,-0.329 -1.981,-0.551 -3.031,-0.645 z m -14.735,14.926 -13.543,3.164 -0.129,0.027 c -0.285,-1.582 -0.433,-3.211 -0.433,-4.883 0,-1.5 0.125,-2.976 0.355,-4.418 l 0.039,0.016 13.7,2.984 0.48,0.102 c -0.039,0.433 -0.066,0.871 -0.066,1.312 0,0.535 0.031,1.071 0.09,1.586 z m 3.821,-10.825 -11.293,-8.769 -0.008,-0.047 c 2.051,-2.406 4.508,-4.449 7.265,-6.031 l -0.007,0.007 6.449,12.938 0.062,0.078 c -0.839,0.559 -1.621,1.211 -2.316,1.953 z m 8.089,-3.898 c -1.089,0.133 -2.136,0.402 -3.125,0.789 l -0.054,-0.117 -6.379,-12.782 -0.031,-0.125 c 2.945,-1.312 6.16,-2.121 9.539,-2.328 h 0.05 v 14.473 z m 6.004,25.449 6.446,12.934 0.043,0.07 c -2.993,1.273 -6.246,2.047 -9.668,2.191 v -0.089 -14.032 -0.41 c 1.043,-0.098 2.054,-0.312 3.011,-0.64 z m -11.629,-0.976 -6.085,12.66 -0.043,0.09 c -2.692,-1.493 -5.118,-3.426 -7.164,-5.704 l -0.122,-0.195 10.965,-8.816 0.34,-0.266 c 0.676,0.684 1.477,1.352 2.277,1.871 z m -4.015,-4.329 -11.145,8.954 -0.054,0.039 c -1.825,-2.539 -3.223,-5.395 -4.106,-8.469 l 0.09,-0.02 13.578,-3.16 0.504,-0.121 c 0.328,0.938 0.758,1.832 1.277,2.656 z m 11.265,3.067 c -5.621,0 -10.183,-4.559 -10.183,-10.184 0,-5.621 4.562,-10.179 10.183,-10.179 5.625,0 10.18,4.558 10.18,10.179 0,5.625 -4.555,10.184 -10.18,10.184 z m -1.625,3.304 v 14.11 c -3.222,-0.188 -6.3,-0.934 -9.128,-2.129 l -0.063,-0.078 6.082,-12.653 0.195,-0.406 c 0.926,0.336 1.899,0.582 2.914,0.707 z m 14.735,-15.093 13.855,-3.235 0.239,-0.05 c 0.289,1.586 0.437,3.222 0.437,4.894 0,1.563 -0.133,3.09 -0.375,4.582 l -0.07,-0.015 -14.102,-3.075 -0.047,-0.004 c 0.059,-0.492 0.082,-0.984 0.082,-1.492 0,-0.535 -0.027,-1.066 -0.089,-1.586 z m -2.082,-5.567 11.211,-9.007 0.105,-0.083 c 1.879,2.567 3.321,5.481 4.223,8.618 l -0.09,0.015 -13.894,3.242 -0.184,0.043 c -0.34,-0.953 -0.777,-1.851 -1.313,-2.691 z m -23.528,3.11 -0.347,-0.094 -13.707,-2.981 -0.149,-0.015 c 0.821,-3.074 2.161,-5.942 3.918,-8.496 l 0.032,-0.024 11.406,8.86 0.094,0.039 c -0.489,0.812 -0.891,1.683 -1.2,2.594 z m 21.825,13.297 11.508,8.937 -0.028,0.031 c -2.097,2.395 -4.605,4.426 -7.406,5.981 l -0.027,-0.063 -6.356,-12.761 -0.086,-0.196 c 0.836,-0.523 1.613,-1.133 2.305,-1.82 z m -8.035,21.406 c 3.878,-0.199 7.558,-1.125 10.918,-2.641 l 0.019,0.031 6.918,13.875 h -0.016 c -5.445,2.547 -11.476,4.051 -17.839,4.278 v -0.016 -15.527 0"
         style="fill:#abdee5;fill-opacity:1;fill-rule:nonzero;stroke:none"
         id="path212" /></g></g></svg>
