<?xml version="1.0" encoding="UTF-8" standalone="no"?>
<!-- Created with Inkscape (http://www.inkscape.org/) -->

<svg
   width="237.96046mm"
   height="59.020275mm"
   viewBox="0 0 237.96046 59.020275"
   version="1.1"
   id="svg1"
   xml:space="preserve"
   inkscape:version="1.4 (86a8ad7, 2024-10-11)"
   sodipodi:docname="museoCastromedianoLightBlue.svg"
   xmlns:inkscape="http://www.inkscape.org/namespaces/inkscape"
   xmlns:sodipodi="http://sodipodi.sourceforge.net/DTD/sodipodi-0.dtd"
   xmlns:xlink="http://www.w3.org/1999/xlink"
   xmlns="http://www.w3.org/2000/svg"
   xmlns:svg="http://www.w3.org/2000/svg"><sodipodi:namedview
     id="namedview1"
     pagecolor="#ffffff"
     bordercolor="#000000"
     borderopacity="0.25"
     inkscape:showpageshadow="2"
     inkscape:pageopacity="0.0"
     inkscape:pagecheckerboard="0"
     inkscape:deskcolor="#d1d1d1"
     inkscape:document-units="mm"
     inkscape:zoom="1.0444209"
     inkscape:cx="447.13773"
     inkscape:cy="137.39671"
     inkscape:window-width="1920"
     inkscape:window-height="1051"
     inkscape:window-x="-9"
     inkscape:window-y="-9"
     inkscape:window-maximized="1"
     inkscape:current-layer="layer1" /><defs
     id="defs1"><linearGradient
       id="linearGradient56"
       inkscape:collect="always"><stop
         style="stop-color:#ffffff;stop-opacity:0.02;"
         offset="0"
         id="stop56" /><stop
         style="stop-color:#eae7da;stop-opacity:0.60377359;"
         offset="0.50311524"
         id="stop58" /><stop
         style="stop-color:#ffffff;stop-opacity:0.02229846;"
         offset="1"
         id="stop57" /></linearGradient><clipPath
       clipPathUnits="userSpaceOnUse"
       id="clipPath8"><rect
         style="fill:#19806b;stroke:#1d937b;stroke-width:1.03302;stroke-linecap:round;stroke-linejoin:round;-inkscape-stroke:none"
         id="rect9"
         width="265.08157"
         height="64.096054"
         x="24.83267"
         y="258.10373" /></clipPath><linearGradient
       inkscape:collect="always"
       xlink:href="#linearGradient56"
       id="linearGradient57"
       x1="-7.9194775"
       y1="137.52306"
       x2="230.04074"
       y2="137.52306"
       gradientUnits="userSpaceOnUse" /></defs><g
     inkscape:label="Layer 1"
     inkscape:groupmode="layer"
     id="layer1"
     transform="translate(-8.6574026,-94.040602)"><g
       id="g35"
       transform="translate(16.57688,-13.972256)"><path
         id="path34"
         style="fill:#abdee5;fill-opacity:1"
         d="m 67.168893,125.51083 c -2.55657,-0.41718 -5.117069,-2.39313 -6.338675,-4.8916 -0.918578,-1.8787 -1.030734,-4.75114 -0.265113,-6.78978 0.667519,-1.77743 2.512155,-3.84072 4.243586,-4.7466 1.018035,-0.53263 1.574159,-0.62327 3.836459,-0.62524 2.272219,-0.002 2.82079,0.0871 3.884833,0.63103 2.475255,1.26526 4.261102,3.72692 4.711538,6.49451 0.944306,5.80204 -4.21187,10.88402 -10.072628,9.92768 z m 4.609957,-2.99442 c 2.076965,-1.21718 3.084008,-3.08311 3.084008,-5.71427 0,-4.27735 -4.135686,-7.3652 -8.01222,-5.98221 -2.640244,0.94193 -4.140102,2.86335 -4.358445,5.58344 -0.09816,1.22287 -0.01371,2.03111 0.297298,2.84548 0.538764,1.41073 2.337111,3.21252 3.740218,3.74737 1.510387,0.57574 3.806042,0.3659 5.249141,-0.47981 z" /><path
         style="fill:#abdee5;fill-opacity:1"
         d="m 51.906647,125.57983 -3.773918,-0.0734 0.06975,-8.65782 0.06975,-8.65781 h 4.365625 4.365625 l 0.08136,1.12448 0.08136,1.12447 h -2.771698 c -1.524434,0 -2.96003,0.0723 -3.190213,0.1606 -0.340375,0.13062 -0.418515,0.62289 -0.418515,2.63658 v 2.47598 l 2.71198,0.0754 2.711979,0.0754 0.08526,0.74361 c 0.148058,1.29124 -0.283991,1.50535 -3.037659,1.50535 h -2.490726 l 0.07573,2.57969 0.07573,2.57969 3.108854,0.0745 3.108854,0.0745 v 1.01991 c 0,1.24852 0.03352,1.24122 -5.229127,1.13882 z"
         id="path33" /><path
         style="fill:#abdee5;fill-opacity:1"
         d="m 20.282882,125.42496 c -1.660214,-0.46703 -3.071487,-1.63877 -3.891757,-3.23122 -0.643989,-1.25023 -0.664993,-1.46358 -0.746099,-7.57856 -0.0459,-3.46067 0.01363,-6.3057 0.132292,-6.32229 1.324577,-0.18522 1.831194,-0.16622 2.127588,0.0798 0.272336,0.22602 0.344963,1.57224 0.326593,6.05378 -0.02569,6.26619 0.07072,6.77496 1.496271,7.8963 1.806612,1.42108 4.333822,1.27704 5.872993,-0.33473 1.180373,-1.23605 1.369403,-2.38139 1.371035,-8.30713 0.0011,-4.09182 0.07962,-5.36542 0.332205,-5.39 0.181901,-0.0177 0.687916,-0.0475 1.124479,-0.0662 l 0.79375,-0.034 0.07655,5.82083 c 0.08332,6.33523 -0.06896,7.43253 -1.259365,9.07464 -1.506751,2.07851 -4.969751,3.12266 -7.756537,2.33872 z"
         id="path32" /><path
         style="fill:#abdee5;fill-opacity:1"
         d="m -6.5626647,125.61648 c -0.45114,-0.19043 -0.485428,-17.29342 -0.03467,-17.29342 0.162833,0 2.130745,1.81088 4.373139,4.02419 l 4.077079,4.02419 4.0642491,-4.0579 c 2.361332,-2.35765 4.1873766,-3.98181 4.3581116,-3.87629 0.205513,0.12702 0.293862,2.7249 0.293862,8.64098 0,9.35704 0.08535,8.93114 -1.7217836,8.59212 L 7.9232734,125.497 v -5.80885 c 0,-3.19486 -0.08735,-5.80884 -0.194117,-5.80884 -0.106764,0 -1.474957,1.27687 -3.0404281,2.83748 l -2.84631,2.83749 -1.48280398,-1.44842 c -0.815542,-0.79664 -2.09649002,-2.07276 -2.84655102,-2.83584 -0.750062,-0.76308 -1.510299,-1.38816 -1.689416,-1.38906 -0.246004,-0.001 -0.343086,1.4384 -0.396875,5.88533 l -0.07121,5.88698 -0.79375,0.0514 c -0.436562,0.0283 -0.942578,-0.0114 -1.124479,-0.0882 z"
         id="path31" /><path
         style="fill:#abdee5;fill-opacity:1"
         d="m 35.047636,125.76583 c -1.413028,-0.35156 -1.601142,-0.58773 -1.213519,-1.52354 l 0.322654,-0.77895 2.741463,0.13992 2.741463,0.13991 0.810539,-0.81054 c 1.654692,-1.65469 0.985545,-2.81492 -2.998492,-5.19908 -3.865178,-2.31303 -4.509725,-3.12055 -4.341963,-5.43983 0.14105,-1.95001 0.712141,-2.81656 2.42074,-3.67315 0.996097,-0.49939 1.649892,-0.62392 3.181844,-0.60609 1.060477,0.0123 2.258752,0.14815 2.662834,0.30178 0.632204,0.24037 0.709766,0.38028 0.555995,1.00296 -0.26355,1.06723 -0.468359,1.16926 -1.752779,0.87319 -2.405038,-0.55439 -4.224042,-0.0563 -4.691483,1.28458 -0.550745,1.57987 0.433734,3.01776 2.936928,4.28957 3.758058,1.90937 4.950924,3.19453 4.952592,5.33578 0.0015,1.96293 -0.89815,3.37353 -2.777136,4.35425 -0.954736,0.49832 -4.089823,0.67295 -5.55168,0.30924 z"
         id="path30" /><path
         style="fill:#eae7da;fill-opacity:1"
         d="m 100.72449,132.82397 c -0.72177,-0.72177 -3.540799,-1.96292 -5.557138,-2.44668 l -2.04522,-0.49069 -10e-4,-2.18281 c -0.002,-2.54765 -0.15535,-2.46474 3.057509,-1.65055 2.18196,0.55295 6.308039,2.47208 7.616189,3.54245 l 0.75334,0.61641 -1.38761,1.4909 c -1.4522,1.56029 -1.82477,1.73177 -2.43556,1.12097 z"
         id="path29" /><path
         style="fill:#eae7da;fill-opacity:1"
         d="m 78.331565,134.14758 c -0.690483,-0.3827 -1.327877,-1.35962 -1.342664,-2.05787 -0.0052,-0.24349 0.298864,-0.80904 0.675602,-1.25677 0.54588,-0.64874 0.891279,-0.81405 1.700893,-0.81405 2.358691,0 3.117972,3.03357 1.029584,4.11352 -0.902819,0.46687 -1.243934,0.46937 -2.063415,0.0152 z"
         id="path28" /><path
         id="path26"
         style="fill:#abdee5;fill-opacity:1"
         d="m 168.78994,156.00939 c 0,-0.42004 9.93358,-19.85443 10.18646,-19.92914 0.26188,-0.0774 10.14734,19.16396 10.17309,19.80117 0.01,0.24228 -0.65784,0.33073 -2.49637,0.33073 h -2.50973 l -0.80137,-1.5875 -0.80137,-1.5875 h -3.30348 c -1.81692,0 -3.39278,-0.0298 -3.50192,-0.0661 -0.10914,-0.0364 -0.55563,0.67184 -0.99219,1.57384 l -0.79375,1.63998 -2.57969,0.0137 c -1.41882,0.008 -2.57968,-0.0776 -2.57968,-0.1891 z m 11.37708,-8.40674 c 0,-0.0786 -0.24777,-0.6285 -0.5506,-1.2221 -0.60255,-1.18109 -0.79596,-1.13044 -1.42352,0.37275 l -0.41423,0.99219 h 1.19418 c 0.65679,0 1.19417,-0.0643 1.19417,-0.14284 z" /><path
         id="path24"
         style="fill:#abdee5;fill-opacity:1"
         d="m 143.12535,146.14865 v -10.09623 l 4.69636,0.10838 c 4.09047,0.0944 4.89251,0.18546 6.21682,0.70584 2.11686,0.8318 4.20391,2.80864 5.28617,5.00702 0.79662,1.61815 0.86587,1.96223 0.86116,4.27876 -0.004,2.20339 -0.0998,2.72544 -0.76045,4.16544 -0.92525,2.01667 -2.98576,4.0482 -5.12071,5.04871 -1.45126,0.68011 -1.74664,0.71713 -6.3507,0.7958 l -4.82865,0.0825 z m 9.23428,4.91764 c 1.63242,-0.84415 2.93361,-3.0212 2.93361,-4.9083 0,-1.94977 -1.42322,-4.20231 -3.09699,-4.90166 -0.51339,-0.2145 -1.63327,-0.39001 -2.48863,-0.39001 h -1.55518 v 5.29167 5.29166 h 1.73293 c 0.99574,0 2.04829,-0.16308 2.47426,-0.38336 z" /><path
         style="fill:#abdee5;fill-opacity:1"
         d="m 128.90082,146.22415 0.0693,-9.98802 5.75469,-0.0713 5.75469,-0.0713 0.0331,1.59266 c 0.0182,0.87596 0.0331,1.77125 0.0331,1.98953 0,1.22471 0.0966,1.19063 -3.37344,1.19063 h -3.30729 v 1.45521 1.45521 h 2.74981 c 2.87826,0 3.15024,0.11363 2.93974,1.22829 -0.051,0.27032 -0.10193,1.17611 -0.11306,2.01285 l -0.0202,1.52136 h -2.77813 -2.77812 v 1.4473 1.4473 l 3.33339,0.074 3.3334,0.074 0.002,1.98438 c 8.3e-4,1.09141 -0.0109,2.1332 -0.0261,2.3151 -0.0212,0.25373 -1.38353,0.33073 -5.85163,0.33073 h -5.82401 z"
         id="path23" /><path
         style="fill:#abdee5;fill-opacity:1"
         d="m 106.61285,146.13595 c 0,-5.94767 0.0987,-10.04008 0.24098,-9.98802 0.13254,0.0485 2.39675,2.19142 5.03157,4.76203 l 4.79059,4.67383 4.7865,-4.67383 c 2.63257,-2.57061 4.89274,-4.71353 5.0226,-4.76203 0.13582,-0.0507 0.2361,4.19145 0.2361,9.98802 v 10.07621 h -2.51355 -2.51354 v -4.36562 c 0,-2.4011 -0.0919,-4.36563 -0.20428,-4.36563 -0.11235,0 -1.21105,1.01203 -2.44155,2.24896 -1.2305,1.23693 -2.35897,2.24582 -2.5077,2.24199 -0.14873,-0.004 -1.34199,-1.07284 -2.65168,-2.37556 l -2.38125,-2.3686 -0.0724,4.49223 -0.0724,4.49223 h -2.37501 -2.375 z"
         id="path22" /><path
         id="path20"
         style="fill:#eae7da;fill-opacity:1"
         d="m 88.488902,155.73533 c -2.67772,-0.93019 -4.842761,-2.92021 -6.007047,-5.5214 -0.866031,-1.93485 -0.966303,-5.30965 -0.216827,-7.29763 1.516801,-4.02331 5.163624,-6.54789 9.458604,-6.54789 2.85954,0 5.176619,1.09934 7.359159,3.49156 1.751829,1.92012 2.372129,3.64076 2.365869,6.56261 -0.004,1.97771 -0.10545,2.45638 -0.8392,3.96875 -1.360079,2.80331 -3.165389,4.41789 -6.016128,5.38053 -1.67529,0.56571 -4.41802,0.5493 -6.10443,-0.0365 z m 5.4305,-4.6164 c 0.68815,-0.34805 1.508149,-1.07181 1.974289,-1.74258 0.70975,-1.0213 0.79729,-1.36014 0.79729,-3.08606 0,-1.72592 -0.0875,-2.06476 -0.79729,-3.08607 -1.141229,-1.64219 -2.742139,-2.41194 -4.681429,-2.25092 -2.34561,0.19475 -4.08342,1.73543 -4.74421,4.20605 -0.2838,1.0611 -0.26747,1.44493 0.11281,2.65132 1.03584,3.28606 4.39153,4.79882 7.33854,3.30826 z" /><path
         id="path18"
         style="fill:#abdee5;fill-opacity:1"
         d="m 217.6676,156.20568 c -2.56376,-0.64729 -5.17281,-2.76749 -6.56478,-5.33477 -0.86752,-1.59999 -0.90559,-1.78699 -0.90559,-4.44833 0,-2.50152 0.0757,-2.94205 0.76046,-4.42446 0.83656,-1.8111 2.82767,-3.90087 4.55062,-4.77612 4.9636,-2.52146 11.17607,-0.4069 13.66639,4.65167 0.80432,1.6338 0.86628,1.94969 0.86628,4.41662 0,2.46692 -0.062,2.78281 -0.86628,4.41661 -1.09669,2.2277 -3.17803,4.1888 -5.28617,4.98077 -1.71519,0.64436 -4.72715,0.89516 -6.22093,0.51801 z m 4.70046,-5.22863 c 4.26946,-2.13559 3.3876,-8.78375 -1.30554,-9.84222 -1.95629,-0.44122 -4.09646,0.54589 -5.25843,2.42532 -2.71321,4.38851 1.9912,9.70421 6.56397,7.4169 z" /><path
         style="fill:#abdee5;fill-opacity:1"
         d="m 190.93626,156.30988 c -0.25114,-0.25115 -0.23876,-20.20631 0.0125,-20.20509 0.10914,5.3e-4 2.75828,2.19939 5.88698,4.88636 l 5.68854,4.88539 0.072,-4.88636 0.072,-4.88635 h 2.37541 2.37541 V 146.158 c 0,6.08649 -0.098,10.05416 -0.24828,10.05416 -0.13656,0 -2.13086,-1.62499 -4.43177,-3.61109 -2.30092,-1.98611 -4.87842,-4.20949 -5.72779,-4.94086 l -1.54431,-1.32975 0.0891,5.00699 0.0891,5.007 -2.26149,0.0757 c -1.24382,0.0416 -2.34515,-0.008 -2.4474,-0.11024 z"
         id="path17" /><path
         style="fill:#abdee5;fill-opacity:1"
         d="m 162.31131,155.6266 c -0.0859,-0.47831 -0.12193,-5.03683 -0.08,-10.13006 l 0.0763,-9.26042 h 2.51354 2.51354 v 10.05417 10.05416 l -2.43358,0.0759 -2.43358,0.0759 z"
         id="path16" /><path
         id="path14"
         style="fill:#abdee5;fill-opacity:1"
         d="m 63.39758,156.30036 c -0.09701,-0.097 -0.176389,-4.62139 -0.176389,-10.05417 v -9.87778 l 4.960938,0.006 c 5.691043,0.007 6.43832,0.19929 8.042077,2.07291 1.612964,1.88439 1.940715,3.99841 1.006864,6.49435 -0.501261,1.33974 -1.761108,2.81514 -2.673302,3.13068 -0.38515,0.13323 0.251451,1.53866 2.548556,5.62646 0.654194,1.16417 1.190945,2.2655 1.192781,2.4474 0.0024,0.24159 -0.673628,0.33073 -2.508438,0.33073 h -2.511776 l -1.855616,-3.70417 C 69.78219,149.49685 69.49139,149.0686 68.907967,149.0686 h -0.659692 v 3.70417 3.70417 h -2.337153 c -1.285434,0 -2.416528,-0.0794 -2.513542,-0.17639 z m 9.084028,-12.25903 c 0.293982,-0.29398 0.529167,-0.88195 0.529167,-1.32292 0,-1.35676 -0.778362,-1.85208 -2.910417,-1.85208 h -1.852083 v 1.85208 1.85209 h 1.852083 c 1.499306,0 1.952877,-0.1008 2.38125,-0.52917 z" /><path
         style="fill:#abdee5;fill-opacity:1"
         d="m 51.236265,156.31036 c -0.102249,-0.10225 -0.185907,-3.55935 -0.185907,-7.68244 v -7.49653 h -2.38125 -2.381251 v -2.38125 -2.38125 h 7.286343 7.286343 l -0.07645,2.31511 -0.07645,2.3151 -2.311064,0.0764 -2.311064,0.0764 -0.07019,7.59653 -0.07019,7.59652 -2.261488,0.0757 c -1.243818,0.0416 -2.345146,-0.008 -2.447396,-0.11024 z"
         id="path13" /><path
         id="path11"
         style="fill:#abdee5;fill-opacity:1"
         d="m 11.347811,156.1465 c -0.02438,-0.53584 9.91459,-20.04179 10.170601,-19.96056 0.234798,0.0745 10.215881,19.71305 10.216846,20.10243 2.84e-4,0.11441 -1.160273,0.17394 -2.579015,0.13229 l -2.579532,-0.0757 -0.774594,-1.65364 -0.774595,-1.65365 h -3.527511 -3.527512 l -0.848067,1.71979 -0.848068,1.7198 H 13.81961 c -1.780989,0 -2.460892,-0.091 -2.471799,-0.33073 z m 11.392129,-8.25044 c 0,-0.063 -0.285655,-0.67801 -0.634788,-1.36675 l -0.634788,-1.25226 -0.692586,1.36676 -0.692586,1.36675 h 1.327374 c 0.730056,0 1.327374,-0.0515 1.327374,-0.1145 z" /><path
         style="fill:#abdee5;fill-opacity:1"
         d="m -0.41110168,156.38796 c -4.99775602,-1.65734 -7.78173802,-5.6514 -7.48708202,-10.74141 0.328581,-5.67604 4.703967,-9.55051 10.825904,-9.58651 1.37897,-0.008 2.8766531,0.1599 3.7885481,0.425 1.49835,0.43558 1.506897,0.44386 1.32773,1.28561 -0.09918,0.46596 -0.375277,1.44251 -0.613548,2.17012 -0.425682,1.2999 -0.449329,1.32061 -1.35926,1.19062 -0.509323,-0.0728 -1.9469121,-0.13229 -3.1946421,-0.13229 -2.02746898,0 -2.38447898,0.0767 -3.35881198,0.72168 -0.59961702,0.39692 -1.40770002,1.26343 -1.79573902,1.92557 -0.61897,1.05619 -0.692996,1.42564 -0.603391,3.01143 0.118767,2.10189 0.777729,3.29033 2.41196202,4.34999 1.31971,0.85571 3.07217298,1.08421 5.31712198,0.69326 1.0115261,-0.17615 1.8920751,-0.2126 2.0151791,-0.0834 0.339533,0.35627 1.275212,3.62314 1.139221,3.97753 -0.225129,0.58668 -1.784934,0.94223 -4.5767341,1.04326 -1.852233,0.067 -3.13084598,-0.0164 -3.83645798,-0.25043 z"
         id="path10" /><path
         style="fill:#abdee5;fill-opacity:1"
         d="m 36.272747,156.73993 c -1.883748,-0.28134 -3.743223,-1.01156 -3.743223,-1.46997 0,-0.71208 1.420013,-3.81982 1.745381,-3.81982 0.1807,0 1.068873,0.18967 1.973717,0.42148 1.86447,0.47765 3.814835,0.32234 4.062675,-0.32352 0.375818,-0.97937 0.126728,-1.4055 -1.323672,-2.2645 -5.680352,-3.36416 -6.726766,-4.48787 -6.716874,-7.21298 0.01365,-3.75867 2.588713,-5.96631 6.959306,-5.96631 1.452623,0 4.566449,0.59545 4.909913,0.93892 0.16765,0.16765 -1.075037,4.08655 -1.349672,4.25628 -0.120529,0.0745 -0.728212,-0.059 -1.350405,-0.29659 -1.580952,-0.60377 -3.830847,-0.45519 -4.320328,0.28531 -0.322279,0.48756 -0.300952,0.63643 0.17849,1.24594 0.299476,0.38073 1.641023,1.30559 2.981215,2.05526 1.340192,0.74967 2.775038,1.67727 3.188548,2.06135 3.281934,3.04833 1.718208,8.65375 -2.736211,9.80838 -1.589407,0.41199 -2.989828,0.50018 -4.45886,0.28077 z"
         id="path9" /><path
         style="fill:#eae7da;fill-opacity:1"
         d="m 87.582752,166.77289 c -2.96094,-0.58093 -7.079918,-2.46135 -8.924528,-4.0743 l -1.017241,-0.88948 1.567788,-1.59606 1.567787,-1.59606 1.210338,0.88189 c 2.848996,2.07587 5.935486,3.06376 9.572176,3.06376 3.48895,0 6.558629,-0.977 9.445828,-3.00636 l 1.37511,-0.96654 1.5638,1.39114 c 0.86009,0.76512 1.57435,1.48068 1.58726,1.59012 0.0451,0.38221 -3.2996,2.66399 -5.2157,3.55824 -2.979899,1.39073 -5.491458,1.93615 -8.759938,1.90233 -1.54107,-0.0159 -3.32878,-0.13235 -3.97268,-0.25868 z"
         id="path8" /><path
         id="path56"
         style="display:inline;fill:url(#linearGradient57);fill-opacity:1"
         d="m 38.712362,108.01459 c -1.531952,-0.0178 -2.185621,0.10678 -3.181718,0.60617 -1.708599,0.85659 -2.27999,1.72315 -2.42104,3.67316 -0.167762,2.31928 0.477192,3.12643 4.34237,5.43946 3.984037,2.38416 4.652959,3.54447 2.998267,5.19916 l -0.810287,0.81081 -2.741951,-0.14005 -2.741435,-0.14004 -0.322461,0.77928 c -0.387623,0.93581 -0.199665,1.17186 1.213363,1.52342 1.461857,0.36371 4.596863,0.18878 5.551599,-0.30954 1.878986,-0.98072 2.779108,-2.39133 2.777608,-4.35426 -0.0017,-2.14125 -1.194611,-3.42622 -4.952669,-5.33559 -2.503194,-1.27181 -3.488034,-2.70979 -2.937289,-4.28966 0.467441,-1.34088 2.286666,-1.83906 4.691704,-1.28467 1.28442,0.29607 1.489314,0.19441 1.752864,-0.87282 0.153771,-0.62268 0.07617,-0.76267 -0.556038,-1.00304 -0.404082,-0.15363 -1.60241,-0.28949 -2.662887,-0.30179 z m -21.48551,0.15658 c -0.329275,-0.0123 -0.787235,0.0293 -1.449524,0.12196 -0.118662,0.0166 -0.178191,2.86142 -0.132291,6.32209 0.08111,6.11498 0.102218,6.32812 0.746207,7.57835 0.82027,1.59245 2.231538,2.7643 3.891752,3.23133 2.786786,0.78394 6.249882,-0.26037 7.756633,-2.33888 1.190405,-1.64211 1.342674,-2.73915 1.259354,-9.07438 l -0.077,-5.82083 -0.79375,0.0341 c -0.436563,0.0187 -0.942579,0.0485 -1.12448,0.0662 -0.252585,0.0246 -0.330662,1.29803 -0.331762,5.38985 -0.0016,5.92574 -0.190603,7.07094 -1.370976,8.30699 -1.539171,1.61177 -4.066415,1.75594 -5.873027,0.33486 -1.425551,-1.12134 -1.522239,-1.62997 -1.496549,-7.89616 0.01837,-4.48154 -0.05426,-5.82787 -0.326595,-6.05389 -0.148197,-0.12301 -0.348719,-0.18919 -0.677995,-0.20154 z m 31.045134,0.0196 -0.06976,8.65787 -0.06925,8.65787 3.773413,0.0734 h 5.17e-4 c 5.262647,0.1024 5.228621,0.10957 5.228621,-1.13895 v -1.02009 l -3.108854,-0.0744 -3.108854,-0.0744 -0.07545,-2.57969 -0.07596,-2.57969 h 2.490804 c 2.753668,0 3.185599,-0.21409 3.037541,-1.50533 l -0.08527,-0.74363 -2.71198,-0.0754 -2.711979,-0.0755 v -2.47582 c 0,-2.01369 0.0782,-2.50591 0.418579,-2.63653 0.230183,-0.0883 1.666069,-0.16071 3.190503,-0.16071 h 2.771407 l -0.08113,-1.12448 -0.08165,-1.12448 h -4.365625 z m -54.8695194,0.13229 c -0.450758,0 -0.4165168,17.10309 0.034623,17.29352 0.181901,0.0768 0.6879171,0.11615 1.1244791,0.0879 l 0.79375,-0.0512 0.071313,-5.88698 c 0.053789,-4.44693 0.150871,-5.88643 0.396875,-5.88543 0.179117,9e-4 0.9392406,0.62598 1.6893026,1.38906 0.750061,0.76308 2.03131264,2.03936 2.84685464,2.836 l 1.48259686,1.44849 2.8463379,-2.83755 c 1.5654711,-1.56061 2.9338772,-2.83755 3.0406412,-2.83755 0.106767,0 0.1937867,2.61409 0.1937867,5.80895 v 5.80894 l 0.9244913,0.17312 c 1.8071331,0.33902 1.7213421,0.7648 1.7213421,-8.59224 0,-5.91608 -0.08801,-8.5138 -0.293523,-8.64082 -0.170735,-0.10552 -1.9970575,1.5186 -4.3583895,3.87625 l -4.0638347,4.05764 -4.0772705,-4.02405 c -2.242394,-2.21331 -4.2105434,-4.02404 -4.3733764,-4.02404 z m 75.2424354,0.13436 c -2.2623,0.002 -2.818423,0.0927 -3.836458,0.62528 -1.731431,0.90588 -3.575633,2.96905 -4.243152,4.74648 -0.765621,2.03864 -0.653478,4.91107 0.2651,6.78977 1.221606,2.49847 3.782061,4.47451 6.338631,4.89169 5.860758,0.95634 11.01656,-4.12552 10.072254,-9.92756 -0.450436,-2.76759 -2.236086,-5.22943 -4.711341,-6.49469 -1.064043,-0.54393 -1.612815,-0.63297 -3.885034,-0.63097 z m -0.33693,2.0469 c 3.388571,-0.27698 6.554639,2.55513 6.554639,6.29781 0,2.63116 -1.006568,4.4972 -3.083533,5.71438 -1.443099,0.84571 -3.738905,1.0553 -5.249292,0.47956 -1.403107,-0.53485 -3.201576,-2.33633 -3.74034,-3.74706 -0.311008,-0.81437 -0.3953,-1.62295 -0.29714,-2.84582 0.218343,-2.72009 1.718147,-4.6412 4.358391,-5.58313 0.484566,-0.17287 0.973193,-0.27617 1.457275,-0.31574 z m 25.49095,15.04146 c -0.739286,8.5e-4 -0.679244,0.56573 -0.677994,2.15801 l 10e-4,2.18281 2.045353,0.49041 c 2.016339,0.48376 4.835519,1.72511 5.557289,2.44688 h 5.1e-4 c 0.61079,0.6108 0.98331,0.43943 2.43551,-1.12086 l 1.38752,-1.49087 -0.75345,-0.6165 c -1.30815,-1.07037 -5.434111,-2.98947 -7.616071,-3.54242 -1.204822,-0.30532 -1.936127,-0.50797 -2.3797,-0.50746 z m -14.433744,4.47311 c -0.809614,0 -1.154791,0.16517 -1.700671,0.81391 -0.376738,0.44773 -0.680611,1.01328 -0.675411,1.25677 0.01479,0.69825 0.65207,1.67505 1.342553,2.05775 0.819481,0.45417 1.160621,0.45189 2.06344,-0.015 2.088388,-1.07995 1.32878,-4.11345 -1.029911,-4.11345 z m 63.759932,6.03374 v 10.09603 10.09602 l 4.82865,-0.0822 c 4.60406,-0.0787 4.89977,-0.11571 6.35103,-0.79582 2.13495,-1.00051 4.19537,-3.03212 5.12062,-5.04879 0.66065,-1.44 0.75667,-1.96225 0.76067,-4.16564 0.005,-2.31653 -0.0648,-2.66065 -0.86144,-4.2788 -1.08226,-2.19838 -3.16912,-4.17513 -5.28598,-5.00693 -1.32431,-0.52038 -2.12673,-0.6115 -6.2172,-0.7059 z m -140.1976434,0.007 c -6.121937,0.036 -10.4971148,3.91045 -10.8256958,9.58649 -0.294656,5.09001 2.4891254,9.08413 7.48688147,10.74147 0.705612,0.23403 1.98422533,0.31763 3.83645833,0.25063 2.7918001,-0.10103 4.3518526,-0.45667 4.5769816,-1.04335 0.135991,-0.35439 -0.7999323,-3.62127 -1.1394653,-3.97754 -0.123104,-0.1292 -1.003338,-0.093 -2.0148641,0.0832 -2.244949,0.39095 -3.99727814,0.16273 -5.31698814,-0.69298 -1.63423306,-1.05966 -2.29348886,-2.24823 -2.41225586,-4.35012 -0.089605,-1.58579 -0.015389,-1.955 0.6035807,-3.01119 0.388039,-0.66214 1.196139,-1.52906 1.79575605,-1.92598 0.974333,-0.64498 1.33098236,-0.7214 3.35845135,-0.7214 1.24773,0 2.685314,0.0595 3.194637,0.13229 0.909931,0.12999 0.933925,0.10928 1.359607,-1.19062 0.238271,-0.72761 0.5142192,-1.70445 0.6133992,-2.17041 0.179167,-0.84175 0.1707825,-0.84962 -1.3275675,-1.2852 -0.911895,-0.2651 -2.409946,-0.43329 -3.788916,-0.42529 z m 176.0486834,0.0202 c -0.25288,0.0747 -10.18646,19.50949 -10.18646,19.92953 0,0.1115 1.16087,0.19714 2.57969,0.18914 l 2.57969,-0.014 0.79375,-1.6397 c 0.43656,-0.902 0.88305,-1.61046 0.99219,-1.57406 0.10914,0.0363 1.68519,0.0661 3.50211,0.0661 h 3.30367 l 0.80099,1.5875 0.8015,1.5875 h 2.50992 c 1.83853,0 2.50649,-0.0884 2.49649,-0.33073 -0.0257,-0.63721 -9.91166,-19.87878 -10.17354,-19.80138 z m -38.49687,0.0134 -5.75469,0.0713 -5.75469,0.0713 -0.0692,9.98802 -0.0687,9.98803 h 5.82393 c 4.4681,0 5.83064,-0.077 5.85184,-0.33073 0.0152,-0.1819 0.0272,-1.2237 0.0264,-2.31511 l -0.002,-1.98437 -3.33365,-0.0739 -3.33313,-0.0744 v -1.44694 -1.44746 h 2.77813 2.77812 l 0.0202,-1.52136 c 0.0111,-0.83674 0.0617,-1.74247 0.11266,-2.01279 0.2105,-1.11466 -0.0611,-1.22835 -2.93936,-1.22835 h -2.7497 v -1.45521 -1.45521 h 3.30729 c 3.47004,0 3.37344,0.0341 3.37344,-1.19062 0,-0.21828 -0.0154,-1.11359 -0.0336,-1.98955 z m 62.18897,0.0103 -0.0718,4.88653 -0.0724,4.886 -5.68854,-4.88497 c -3.1287,-2.68697 -5.77784,-4.88599 -5.88698,-4.88652 -0.25126,-0.001 -0.26354,19.95381 -0.0124,20.20496 0.10225,0.10224 1.20357,0.15167 2.44739,0.11007 l 2.26136,-0.0754 -0.0889,-5.00693 -0.0889,-5.00693 1.54409,1.32963 c 0.84937,0.73137 3.42689,2.95468 5.72781,4.94079 2.30091,1.9861 4.29521,3.61115 4.43177,3.61115 0.15028,0 0.24805,-3.96768 0.24805,-10.05417 v -10.05417 h -2.37505 z m -163.43809,5.2e-4 c -4.370593,0 -6.945615,2.20737 -6.959265,5.96604 -0.0099,2.72511 1.036551,3.84884 6.716903,7.213 1.4504,0.859 1.699251,1.28509 1.323433,2.26446 -0.24784,0.64586 -2.198331,0.80166 -4.062801,0.32401 -0.904844,-0.23181 -1.792823,-0.42168 -1.973523,-0.42168 -0.325368,0 -1.74563,3.10784 -1.74563,3.81992 0,0.45841 1.859693,1.18834 3.743441,1.46968 1.469032,0.21941 2.869236,0.13139 4.458643,-0.2806 4.454419,-1.15463 6.018201,-6.75986 2.736267,-9.80819 -0.41351,-0.38408 -1.848244,-1.3117 -3.188436,-2.06137 -1.340192,-0.74967 -2.681738,-1.67496 -2.981214,-2.05569 -0.479442,-0.60951 -0.500562,-0.75836 -0.178283,-1.24592 0.489481,-0.7405 2.739197,-0.88902 4.320149,-0.28525 0.622193,0.23759 1.229777,0.37112 1.350306,0.29662 0.274635,-0.16973 1.517438,-4.08842 1.349788,-4.25607 -0.343464,-0.34347 -3.457155,-0.93896 -4.909778,-0.93896 z m 67.62378,0.0434 c -0.14228,-0.0521 -0.24133,4.04035 -0.24133,9.98802 v 10.07639 h 2.37505 2.37505 l 0.0723,-4.49224 0.0723,-4.49223 2.38125,2.36885 c 1.30969,1.30272 2.50331,2.37156 2.65204,2.37556 0.14873,0.004 1.27684,-1.00531 2.50734,-2.24224 1.2305,-1.23693 2.32936,-2.24895 2.44171,-2.24895 0.11238,0 0.20412,1.96452 0.20412,4.36562 v 4.36563 h 2.51354 2.51354 v -10.07639 c 0,-5.79657 -0.0998,-10.03872 -0.23564,-9.98802 -0.12986,0.0485 -2.39038,2.19137 -5.02295,4.76198 l -4.78627,4.67413 -4.79092,-4.67413 c -2.63482,-2.57061 -4.89868,-4.71348 -5.03122,-4.76198 z m 112.5337,0.0258 c -1.31934,0.0773 -2.63845,0.41815 -3.87935,1.04851 -1.72295,0.87525 -3.71407,2.96484 -4.55063,4.77594 -0.68476,1.48241 -0.76067,1.92301 -0.76067,4.42453 0,2.66134 0.0384,2.84832 0.90588,4.44831 1.39197,2.56728 4.00122,4.68727 6.56498,5.33456 1.49378,0.37715 4.50562,0.12656 6.22081,-0.5178 2.10814,-0.79197 4.18929,-2.75287 5.28598,-4.98057 0.80428,-1.6338 0.8661,-1.94987 0.8661,-4.41679 0,-2.46693 -0.0618,-2.78298 -0.8661,-4.41678 -1.86774,-3.79393 -5.82899,-5.93182 -9.787,-5.69991 z M 21.51858,136.186 c -0.256011,-0.0812 -10.195336,19.4247 -10.170956,19.96054 0.01091,0.23973 0.691212,0.33073 2.472201,0.33073 h 2.456698 l 0.84801,-1.7198 0.84801,-1.71979 h 3.527433 3.527434 l 0.774629,1.65365 0.77463,1.65364 2.579688,0.0755 c 1.418742,0.0417 2.578938,-0.0179 2.578654,-0.13229 C 31.734046,155.89875 21.753378,136.2605 21.51858,136.186 Z m 140.78882,0.0501 -0.076,9.26042 c -0.0419,5.09323 -0.006,9.65182 0.0801,10.13013 l 0.15606,0.86972 2.43344,-0.076 2.43345,-0.076 V 146.2902 136.23603 h -2.51355 z m -99.086456,0.1323 v 9.87795 c 0,5.43278 0.07972,9.95716 0.176733,10.05416 0.09701,0.097 1.228108,0.17622 2.513542,0.17622 h 2.336808 v -3.70417 -3.70416 h 0.659908 c 0.583423,0 0.874007,0.42824 2.515092,3.70416 l 1.855701,3.70417 h 2.511991 c 1.83481,0 2.510774,-0.0891 2.508374,-0.33073 -0.0018,-0.1819 -0.538498,-1.28323 -1.192692,-2.4474 -2.297105,-4.0878 -2.933831,-5.4933 -2.548681,-5.62653 0.912194,-0.31554 2.17196,-1.79081 2.673221,-3.13055 0.933851,-2.49594 0.606308,-4.60979 -1.006656,-6.49418 -1.603757,-1.87362 -2.351361,-2.06574 -8.042404,-2.07274 z m 28.502653,0 c -4.29498,0 -7.941536,2.52461 -9.458337,6.54792 -0.749476,1.98798 -0.649507,5.36289 0.216524,7.29774 1.164286,2.60119 3.329148,4.59092 6.006868,5.52111 1.68641,0.5858 4.429247,0.6024 6.104537,0.0367 2.850739,-0.96264 4.656091,-2.57724 6.016171,-5.38055 0.73375,-1.51237 0.83522,-1.99104 0.83922,-3.96875 0.006,-2.92185 -0.61391,-4.64227 -2.365742,-6.56239 -2.18254,-2.39222 -4.499701,-3.49177 -7.359241,-3.49177 z m -45.435986,5.1e-4 v 2.38125 2.38125 h 2.38125 2.38125 v 7.4967 c 0,4.12309 0.08379,7.57997 0.186035,7.68222 0.10225,0.10224 1.203578,0.15167 2.447396,0.11007 l 2.26136,-0.0755 0.07028,-7.59643 0.07028,-7.59644 2.31097,-0.0765 2.31097,-0.0765 0.07648,-2.3151 0.07648,-2.31511 h -7.286377 z m 21.960416,4.4974 h 1.852084 c 2.132055,0 2.910416,0.49533 2.910416,1.85209 0,0.44097 -0.235184,1.02893 -0.529166,1.32291 -0.428373,0.42837 -0.881944,0.52917 -2.38125,0.52917 h -1.852084 v -1.85208 z m 79.904163,0 h 1.55546 c 0.85536,0 1.97535,0.17566 2.48874,0.39016 1.67377,0.69935 3.09697,2.95174 3.09697,4.90151 0,1.8871 -1.30125,4.06408 -2.93367,4.90823 -0.42597,0.22028 -1.47853,0.38344 -2.47427,0.38344 h -1.73323 V 146.158 Z m -56.939673,0.0868 c 1.93929,-0.16102 3.540139,0.60883 4.681368,2.25102 0.70979,1.02131 0.796851,1.3602 0.796851,3.08612 0,1.72592 -0.0871,2.06482 -0.796851,3.08612 -0.46614,0.67077 -1.286406,1.39448 -1.974556,1.74253 -2.94701,1.49056 -6.302731,-0.0223 -7.338571,-3.30833 -0.38028,-1.20639 -0.396454,-1.59042 -0.112654,-2.65152 0.66079,-2.47062 2.398803,-4.01119 4.744413,-4.20594 z m 129.109953,0.0822 c 0.24801,0.0116 0.49547,0.0446 0.74,0.0997 4.69314,1.05847 5.57481,7.70619 1.30535,9.84178 -4.57277,2.28731 -9.27715,-3.0281 -6.56394,-7.41661 1.01672,-1.6445 2.7825,-2.60585 4.51859,-2.52491 z m -198.851949,4.24161 0.634586,1.25263 c 0.349133,0.68874 0.634587,1.30333 0.634587,1.36633 0,0.063 -0.596995,0.11472 -1.327051,0.11472 h -1.327567 l 0.692464,-1.36684 z m 157.443619,0.28318 c 0.20212,-0.0529 0.40101,0.23008 0.70228,0.82062 0.30283,0.5936 0.55036,1.14355 0.55036,1.22215 0,0.0785 -0.53694,0.14263 -1.19373,0.14263 h -1.19424 l 0.41393,-0.99219 c 0.31378,-0.75159 0.51928,-1.14028 0.7214,-1.19321 z m -76.53435,13.0297 -1.37511,0.96635 c -2.887195,2.02936 -5.956464,3.00653 -9.445414,3.00653 -3.63669,0 -6.723546,-0.98802 -9.572542,-3.06389 l -1.210262,-0.8816 -1.567863,1.59576 -1.567863,1.59629 1.017509,0.88935 c 1.84461,1.61295 5.963579,3.49324 8.924519,4.07417 0.6439,0.12633 2.431815,0.243 3.972885,0.2589 3.26848,0.0338 5.779773,-0.51148 8.759671,-1.90221 1.9161,-0.89425 5.2608,-3.17623 5.2157,-3.55844 -0.0129,-0.10944 -0.72689,-0.82496 -1.58698,-1.59008 z" /></g></g></svg>
